<?xml version="1.0" encoding="utf-8"?>
<!-- Generator: Adobe Illustrator 22.1.0, SVG Export Plug-In . SVG Version: 6.00 Build 0)  -->
<svg version="1.1" id="Capa_1" xmlns="http://www.w3.org/2000/svg" xmlns:xlink="http://www.w3.org/1999/xlink" x="0px" y="0px"
	 viewBox="0 0 40 40" style="enable-background:new 0 0 40 40;" xml:space="preserve">
<g>
	<path style="fill:#F29100;" d="M1.2,37.7h9.1V11.3H1.2V37.7z M1.6,34.4c0.6-1.1,1.2-2.3,1.4-3.6C3.2,29,2.5,27,1.6,25.3v-3.7
		c0.5,1.8,1.1,3.6,1.6,5.4c0.9,3.5,0.3,6.9-0.2,10.3H1.6V34.4z M1.6,32.8v-5.3c0.5,1.6,0.7,3.4,0.1,5C1.6,32.6,1.6,32.7,1.6,32.8z
		 M5.6,16.4c0,0.9,0.1,2.3,1.2,2.6c0.6,0.2,1.3-0.5,1.6-0.9c0.7-0.8,1-1.9,1.4-2.9v2.2c-0.7,0.5-1.2,1.1-1.5,2
		c-0.4,1-1.3,3.5-2.1,1.3c-1-2.9-1.2-6.1-2.1-9.1H5C5.5,13.2,5.7,14.6,5.6,16.4z M4.7,18c0.3,1.3,0.5,3.4,1.6,4.4
		c0.3,0.3,1,0,1.3-0.2c1.4-0.9,1.5-2.7,2.4-4V21c-1.1,1.1-1.5,2.8-1.9,4.3c-0.1,0.3-0.8,2.5-0.8,2.5c-0.7-0.8-1-1.9-1.4-2.8
		c-1.7-4.2-1.1-9.4-3.4-13.3h0.9C4,13.8,4.3,15.9,4.7,18z M3.7,21.1c0.3,2.1,1.2,4.2,2.1,6.1c0.4,0.8,0.9,1.7,1.8,1
		c0.6-0.4,0.8-1.7,1-2.3c0.3-1.1,0.6-2.7,1.3-3.9v3.8c-0.2,1.1-0.6,2.1-1.7,2.9c-0.9,0.7-1.7,1.2-2.4,2.1c-1.2,1.7-1.3,4.4-1.6,6.5
		H3.8c0.4-3,1-6,0.6-9C3.8,24.5,1.9,20.9,1.6,17v-4.9C3.1,14.8,3.2,18.1,3.7,21.1z M7.7,33c0.4-1.2,1.3-2.2,2.2-3.2v1.7
		c-1.7,1.2-2.2,3.7-2.3,5.8H7.3C7.2,35.9,7.3,34.5,7.7,33z M9.9,29.1c-1.2,1.3-2.3,2.4-3,4.1c-0.5,1.3-0.6,2.8-0.5,4.2H5.1
		c0.4-2.8,0.5-6,2.8-7.8c0.9-0.7,1.6-1.3,2-2V29.1z M8.5,37.4c0.1-1.7,0.3-3.9,1.4-5v5H8.5z M9.9,14c-1.1,1.3-1.3,3.1-2.5,4.4
		c-0.4,0.4-0.8-1.2-0.8-1.4c-0.2-0.7,0-1.5,0-2.3c0-1.1-0.3-2.1-0.6-3.1h0.6c0,0.7,0.1,1.5,0.2,2.2c0.1,0.7-0.1,1.4,0.1,2.1
		c0.2,0.6,1.2,0.3,1.5,0c0.7-0.8,0.7-2.1,0.8-3c0.1-0.4,0.1-0.8,0.1-1.3h0.5V14z M7.7,15.2c0-0.5,0-1,0-1.5c0-0.7-0.2-1.3-0.2-2h1
		c-0.1,0.9-0.1,1.9-0.3,2.7c-0.1,0.4-0.2,0.7-0.3,1.1c0,0.1-0.1,0.3-0.2,0.4C7.8,15.7,7.7,15.5,7.7,15.2z"/>
	<path style="fill:#F29100;" d="M12.9,37.7h10.5V7H12.9V37.7z M13.2,31.2c1,2,1.6,4,2,6.1h-2V31.2z M20,30.7c-0.4-2.8-1.6-5.4-2.6-8
		c-1.1-2.7-1.7-5.5-2.2-8.4c-0.3-1.5-0.6-2.9-0.8-4.4c-0.1-0.9,0-1.8,0-2.6H15c0.8,3.4,1.6,6.5,1.8,10c0.1,2.7,1.4,5.9,3.1,8
		c0.2,0.2,0.7-0.1,0.8-0.2c0.9-1.5,1.5-3.1,1.9-4.8c0.1-0.5,0.2-0.9,0.3-1.4v4.6c-1.2,2.1-1.8,4.6-1.8,7.1c0,1.8,0.2,3.6,0.1,5.4
		c0,0.5,0,1,0,1.4h-1.1C20.2,35.2,20.2,32.9,20,30.7z M21.2,10.1c0.1,0.3,0.6,0.1,0.8,0c0.5-0.6,0.9-1.2,1.1-2v1.5
		c-0.3,0.6-0.6,1.2-1,1.8c-0.4,0.7-0.7,1.4-0.9,2.1c0-0.9-0.1-1.7-0.2-2.6c-0.3-1.3-1-2.4-1.2-3.7h0.7C20.4,8.3,20.7,9.2,21.2,10.1z
		 M21.2,7.3h1.1c-0.1,0.7-0.3,1.3-0.6,1.9C21.5,8.6,21.3,8,21.2,7.3z M19.8,10.7c0.6,1.6,0.4,3.5,0.5,5.2c0,0.1,0.8,0,0.8-0.2
		c0.6-1.6,1.1-3.2,1.9-4.7v2.5c-0.4,0.8-0.8,1.5-1.1,2.3c-0.5,1.5-0.6,3.1-1.2,4.6c-0.4-0.7-0.8-1.4-1.1-2.1
		c-0.7-1.5-0.3-3.5-0.3-5.1c0-1-0.1-1.9-0.2-2.8c-0.2-1.1-0.7-2.1-1-3.2h0.8C18.9,8.5,19.4,9.6,19.8,10.7z M17.8,9.4
		c0.6,1.5,0.5,3.2,0.5,4.7c0,1.3-0.1,2.6,0.1,3.9c0.2,1.2,1.2,2.4,1.8,3.4c0.2,0.3,0.7,0.2,0.8-0.1c0.9-1.5,1.1-3.3,1.5-5
		c0.1-0.5,0.3-0.9,0.5-1.3v1.6c-0.6,1-0.8,2.1-1,3.2c-0.3,1.6-0.9,3.1-1.7,4.6c-1.5-2.1-2.4-5-2.6-7.4c-0.3-3.4-1-6.5-1.7-9.8h1.1
		C17.3,8,17.6,8.7,17.8,9.4z M15.3,32c0.6,1.8,1.1,3.6,1.6,5.4h-0.8c-0.5-2.8-1.4-5.4-2.9-7.9v-1.6C14,29.2,14.8,30.5,15.3,32z
		 M13.2,26v-3.9c2.1,5,4.8,9.9,5.4,15.3h-0.9c-0.5-1.9-1-3.8-1.6-5.6C15.4,29.6,14.1,28,13.2,26z M22.1,37.4c-0.1-1.8,0.1-3.7,0-5.5
		c-0.1-2.3,0.1-4.5,0.9-6.7v12.2H22.1z M13.5,7.3c0.1,0.7,0,1.5,0,2.2c0,1.4,0.4,2.8,0.7,4.2c0.6,2.9,1.1,5.7,2.1,8.5
		c1,2.6,2.2,5.1,2.8,7.9c0.4,1.9,0.4,3.9,0.4,5.9c-1-5.7-4.2-11-6.1-16.4V7.3H13.5z"/>
	<path style="fill:#F29100;" d="M26.7,2.3v35.5h12.1V2.3H26.7z M38.4,6.1c-0.6-1.1-0.9-2.2-0.7-3.5h0.7V6.1z M34.1,8.3
		c0.9,4.6-0.8,9.4-2.7,13.6c-1-0.9-1.8-2-2.6-3.1c-0.6-0.8-1.2-1.5-1.7-2.3v-3.7c0.4,2.4,1.9,4.7,3.3,6.5c0.2,0.3,0.7,0.1,0.8-0.2
		c1-3,2.4-5.8,2.2-9.1c-0.1-2.1-0.7-5-0.2-7.4h0.5C32.9,4.2,33.8,6.7,34.1,8.3z M30.5,6c0.1,2.3,0.1,4.6,0,6.9
		c-1.9-3-1.1-6.8-1.1-10.3h1.2C30.4,3.7,30.4,4.9,30.5,6z M30.5,14.3c0.2,0.2,0.8,0.1,0.8-0.2c0.1-2.2,0.2-4.5,0.1-6.7
		c-0.1-1.5-0.4-3.3,0-4.8h0.9C32,4.2,32.2,6,32.3,7.6c0.1,1.9,0.3,3.7,0,5.6c-0.3,1.7-1,3.4-1.7,5c-1.7-2.4-2.9-5-2.8-8.1
		c0.1-1.5,0.1-3,0-4.4c0-1.1-0.2-2.1-0.1-3.1h0.9C28.6,6.6,27.5,11,30.5,14.3z M27.1,25.9C27.1,25.9,27.1,25.9,27.1,25.9L27.1,25.9z
		 M27.1,29.5c0.2-1,0.5-1.9,0.8-2.8c0.3-1.2-0.1-2.2-0.8-3.2v-2.5c0.7,0.9,1.4,2,1.9,3.1c1.1,2.3,0.5,4.4-0.9,6.4
		c-0.3,0.4-0.7,1-1.1,1.6V29.5z M27.1,33.8c0.3-0.6,0.6-1.2,0.8-1.6c0.8-1.6,2-2.8,2.5-4.6c0.8-2.8-1.4-5.9-3.3-8V18
		c0.3,0.3,0.5,0.7,0.8,1c1,1.2,1.9,2.6,3.2,3.5c0.2,0.1,0.7,0,0.8-0.2c1.6-3.5,3.1-7.4,3.4-11.3c0.1-1.9-1.7-6.2-0.8-8.5h0.7
		c-0.6,1.7,0.3,3.8,0.7,5.5c1,4.4-0.6,8.8-1.7,13c-1.5,5.8-0.8,11.5,2.4,16.2h-1.7c-0.5-2.8-1.8-5.6-3-8c-0.1-0.3-0.5-0.2-0.7-0.1
		c-2.6,1.7-3.6,5-3.5,8h-0.4V33.8z M30.5,34.4c0.6,0.9,0.9,1.9,1,3h-1.3C29.9,36.4,30.1,35.3,30.5,34.4z M30.9,33.5
		c-0.2-0.2-0.7,0-0.8,0.2c-0.7,1-1,2.4-0.8,3.7h-0.9c-0.1-2.6,0.7-5.7,2.7-7.3c1,2.2,2.2,4.8,2.7,7.3h-1.5
		C32.2,36,31.8,34.5,30.9,33.5z M37.4,37.4c-3.2-4.5-3.9-9.9-2.7-15.5c0.7-3.7,2.1-7.1,2.2-10.9c0-1.3-0.2-2.7-0.5-4
		c-0.4-1.3-1-3-0.4-4.4h1c-0.4,1.9,0.6,3.6,1.5,5.2v5.9c-0.5,2-1.5,4-2,6c-0.7,2.6-0.9,5-0.9,7.6c0.1,2.9,0.6,6.9,2.9,9.2v0.8H37.4z
		 M38.4,20c-0.7,2.6-1.4,5.1-1.4,7.8c0,1.7,0.6,3.3,1.4,4.7v2.8c-1.7-2.5-2-6.2-2.1-9c0-2.6,0.4-5,1.1-7.5c0.2-1,0.6-1.9,1-2.8V20z
		 M38.4,23v7.3c-0.2-0.5-0.3-0.9-0.4-1.4C37.7,26.9,38,24.9,38.4,23z"/>
</g>
</svg>
