<?xml version="1.0" encoding="utf-8"?>
<!-- Generator: Adobe Illustrator 22.1.0, SVG Export Plug-In . SVG Version: 6.00 Build 0)  -->
<svg version="1.1" id="Capa_1" xmlns="http://www.w3.org/2000/svg" xmlns:xlink="http://www.w3.org/1999/xlink" x="0px" y="0px"
	 viewBox="0 0 40 40" style="enable-background:new 0 0 40 40;" xml:space="preserve">
<g>
	<g>
		<g>
			<path style="fill:#F29100;" d="M38.5,30.9l-23,0c-8.2,0-15-6.7-15-15c0-8.3,6.7-15,14.9-15c8.3,0,15,6.7,15,15
				c0,4.3-1.8,8.4-5,11.2c-0.3,0.3-0.8,0.2-1-0.1c-0.3-0.3-0.2-0.8,0.1-1C27.4,23.5,29,19.8,29,16c0-7.5-6.1-13.5-13.5-13.5
				C8,2.4,2,8.5,2,16C2,23.4,8,29.5,15.5,29.5h23.1C39.8,29.5,39.7,30.9,38.5,30.9z"/>
			<path style="fill:#F29100;" d="M19.6,15.6c0,2.3-1.9,4.2-4.2,4.2c-2.3,0-4.2-1.9-4.2-4.2c0-2.3,1.9-4.2,4.2-4.2
				C17.7,11.4,19.6,13.3,19.6,15.6z M12.6,15.6c0,1.5,1.2,2.8,2.8,2.8c1.5,0,2.8-1.2,2.8-2.8c0-1.5-1.2-2.8-2.8-2.8
				C13.8,12.8,12.6,14.1,12.6,15.6z"/>
		</g>
	</g>
	<rect x="1.7" y="33.2" style="fill:#F29100;" width="37.7" height="4.3"/>
	<path style="fill:#F29100;" d="M15.4,26.9C9.4,26.9,4.5,22,4.5,16c0-6,4.9-10.9,10.9-10.9c6,0,10.9,4.9,10.9,10.9
		C26.3,22,21.4,26.9,15.4,26.9z M15.4,6.7c-5.1,0-9.3,4.2-9.3,9.3c0,5.1,4.2,9.3,9.3,9.3c5.1,0,9.3-4.2,9.3-9.3
		C24.6,10.9,20.5,6.7,15.4,6.7z"/>
</g>
</svg>
