<?xml version="1.0" encoding="utf-8"?>
<!-- Generator: Adobe Illustrator 22.1.0, SVG Export Plug-In . SVG Version: 6.00 Build 0)  -->
<svg version="1.1" id="Capa_1" xmlns="http://www.w3.org/2000/svg" xmlns:xlink="http://www.w3.org/1999/xlink" x="0px" y="0px"
	 viewBox="0 0 40 40" style="enable-background:new 0 0 40 40;" xml:space="preserve">
<path style="fill:#F29100;" d="M1,1v38h38V1H1z M37.6,2.5v2.7l-2.7-2.7H37.6z M20.1,23.3L17,26.4l-4-4L32.9,2.6l4,4L20.1,23.3z
	 M30.9,2.5l-8.5,8.5l-4.1-4.1l4.4-4.4H30.9z M20.6,2.5l-3.3,3.3l0,0L7.1,16l-4-4l9.6-9.6H20.6z M2.5,2.5h7.8l-7.8,7.8V2.5z
	 M2.5,13.6L6,17.1l-3.5,3.5V13.6z M7.1,18.1L7.1,18.1L17.3,7.9l4,4L2.5,30.7v-8L7.1,18.1z M2.5,32.8l9.4-9.4l4.1,4.1l-10,10H2.5
	V32.8z M8.1,37.5l9-9l0,0l7.6-7.6l2.6-2.6l4,4L16,37.5H8.1z M18.2,37.5l3.7-3.7l3.7,3.7H18.2z M37.6,37.5h-9.1l9.1-9.1V37.5z
	 M37.6,26.3L27,36.9l-4-4l14.5-14.5V26.3z M32.4,21.3l-4.1-4.1L37.6,8v8.2L32.4,21.3z"/>
</svg>
