<?xml version="1.0" encoding="utf-8"?>
<!-- Generator: Adobe Illustrator 22.1.0, SVG Export Plug-In . SVG Version: 6.00 Build 0)  -->
<svg version="1.1" id="Capa_1" xmlns="http://www.w3.org/2000/svg" xmlns:xlink="http://www.w3.org/1999/xlink" x="0px" y="0px"
	 viewBox="0 0 40 40" style="enable-background:new 0 0 40 40;" xml:space="preserve">
<path style="fill:#F29100;" d="M38.9,20.5l-2.4-1l1.3-5.6c0.1-0.3-0.1-0.7-0.5-0.7l-4.5-1V4.7c0-0.3-0.3-0.6-0.6-0.6h-31
	C1,4,0.7,4.3,0.7,4.7v16.6c0,0.3,0.3,0.6,0.6,0.6H4L4,22c0,0.2,0,0.3,0.1,0.5c0.1,0.1,0.2,0.2,0.4,0.3l0.4,0.1l-0.3,0.7
	c-0.1,0.3,0,0.7,0.3,0.8l27.6,11.6c0.1,0,0.2,0,0.2,0c0.1,0,0.2,0,0.2,0c0.1-0.1,0.3-0.2,0.3-0.3l6-14.3
	C39.4,20.9,39.3,20.6,38.9,20.5z M1.9,5.3h29.8v6.5v0.6V13v4.4V18v0.7v2H7.1H6.4H5.7H5.6H4.9H4.3H1.9V5.3z M35.3,19.6l-0.1,0.6
	l-1.8,8L6.5,22l0-0.1h25.7c0.3,0,0.6-0.3,0.6-0.6v-2.1v-0.7v-0.7v-4.6l3.6,0.8L35.4,19L35.3,19.6z"/>
</svg>
