<?xml version="1.0" encoding="utf-8"?>
<!-- Generator: Adobe Illustrator 22.1.0, SVG Export Plug-In . SVG Version: 6.00 Build 0)  -->
<svg version="1.1" id="Capa_1" xmlns="http://www.w3.org/2000/svg" xmlns:xlink="http://www.w3.org/1999/xlink" x="0px" y="0px"
	 viewBox="0 0 40 40" style="enable-background:new 0 0 40 40;" xml:space="preserve">
<path style="fill:#F29100;" d="M29.2,19l8.4-4.8c1.6-0.9,2.1-2.9,1.2-4.5l-1-1.7c-0.6-1-1.7-1.6-2.9-1.6c-0.4,0-0.7,0.1-1.1,0.2
	c-0.2-0.3-0.6-0.6-1-0.6c-0.2,0-0.4,0.1-0.6,0.2l-0.4,0.2l-0.3-0.5V4.6C31.6,4.3,31.3,4,31,4H1.4C1.1,4,0.8,4.3,0.8,4.6v28
	c0,1.2,1,2.3,2.3,2.3h8.7c1.2,0,2.3-1,2.3-2.3v-5.9c0-0.1,0.1-0.1,0.1-0.1h7.3c0.7,0,1.3-0.6,1.3-1.3v-6.2l11.8-6.8
	c0.1-0.1,0.2-0.2,0.3-0.4c0-0.2,0-0.3-0.1-0.4l-0.4-0.6l0.4-0.2c0.4-0.2,0.6-0.7,0.6-1.1l0.9,1.6c0.1,0.1,0.1,0.3,0.1,0.4
	c0,0.1-0.1,0.3-0.2,0.3l-8.4,4.8c-0.8,0.4-1.3,1.2-1.5,2c-0.2,0.9-0.1,1.7,0.3,2.5l2.1,3.6c-0.2,0.6-0.2,1.2,0.1,1.9l3.8,8.1
	c0.4,0.8,1.2,1.4,2,1.4c0.3,0,0.7-0.1,1-0.3l1.6-0.9c0.5-0.3,0.8-0.7,0.9-1.3c0.1-0.6,0-1.3-0.4-1.9l-5.1-7.3
	c-0.4-0.5-0.9-0.9-1.5-1L29,19.7C28.8,19.4,28.9,19.1,29.2,19z M34.3,28.9l2.4,3.5c0.2,0.3,0.3,0.6,0.2,0.9
	c-0.1,0.2-0.2,0.4-0.4,0.5L35,34.7c-0.1,0.1-0.2,0.1-0.4,0.1c-0.4,0-0.8-0.3-1-0.7l-2.3-4.8l-1.6-3.3c-0.1-0.3-0.1-0.5-0.1-0.8
	c0-0.2,0.2-0.4,0.4-0.5l0,0l0.3-0.2c0,0,0,0,0.1,0c0.1,0,0.2-0.1,0.3-0.1c0.1,0,0.3,0,0.4,0.1c0.2,0.1,0.4,0.2,0.5,0.4L34.3,28.9z
	 M29.8,23.6l-0.3,0.2l-1.9-3.3c-0.3-0.5-0.4-1.1-0.2-1.6c0.1-0.5,0.5-1,1-1.3l8.4-4.8c0.4-0.2,0.7-0.6,0.8-1
	c0.1-0.4,0.1-0.9-0.2-1.3l-1-1.7c-0.3-0.5-0.9-0.8-1.5-0.8c-0.1,0-0.1,0-0.2,0l-0.2-0.4c0.1,0,0.3,0,0.4,0c0.8,0,1.5,0.4,1.8,1.1
	l1,1.7c0.6,1,0.2,2.3-0.8,2.9L28.6,18c-0.8,0.5-1.1,1.5-0.6,2.3L29.8,23.6C29.8,23.6,29.8,23.6,29.8,23.6z M34.3,9.5
	C34.3,9.5,34.3,9.6,34.3,9.5l-0.4,0.3l-0.1-0.1l-0.3-0.5l-0.3-0.5L33,8.3l-0.3-0.5l-0.3-0.4l0.4-0.2c0,0,0,0,0,0c0,0,0,0,0,0
	l0.2,0.4L33.4,8l0.2,0.4l0.3,0.5L34.3,9.5L34.3,9.5z M33.5,11.5l-10.7,6.2l-0.6,0.3l-0.6,0.3l-3.7,2.2l-0.1-0.1L17.5,20l-0.3-0.5
	L15.8,17l-0.3-0.5L15.2,16l-0.1-0.1l6.5-3.8l0.8-0.5l0.3-0.2l1.1-0.6L30.4,7l0.4-0.2l0.1,0.1L31,7.2l0.1,0.2l0.3,0.4l0,0.1l0.2,0.3
	l0.1,0.2L32,8.9l0.2,0.4l0.3,0.5l0.3,0.5l0.1,0.1l0.3,0.5l0.3,0.5L33.5,11.5z M21.6,25.3c0,0.1-0.1,0.1-0.1,0.1h-7.3
	c-0.7,0-1.3,0.6-1.3,1.3v5.9c0,0.6-0.5,1.1-1.1,1.1H3.1c-0.6,0-1.1-0.5-1.1-1.1V5.2h28.4v0.5L14,15.1c-0.1,0.1-0.2,0.2-0.3,0.4
	c0,0.2,0,0.3,0.1,0.4l0.4,0.6l-0.4,0.3c-0.6,0.3-0.8,1.1-0.4,1.7l1.4,2.4c0.2,0.4,0.6,0.6,1.1,0.6c0.2,0,0.4-0.1,0.6-0.2l0.4-0.3
	l0.4,0.6c0.1,0.2,0.3,0.3,0.5,0.3c0.1,0,0.2,0,0.3-0.1l3.7-2.1V25.3z M14.8,17.6l1.4,2.5l-0.4,0.3c0,0,0,0,0,0c0,0,0,0,0,0l-1.4-2.4
	c0,0,0-0.1,0-0.1L14.8,17.6z"/>
</svg>
