<?xml version="1.0" encoding="utf-8"?>
<!-- Generator: Adobe Illustrator 22.1.0, SVG Export Plug-In . SVG Version: 6.00 Build 0)  -->
<svg version="1.1" id="Capa_1" xmlns="http://www.w3.org/2000/svg" xmlns:xlink="http://www.w3.org/1999/xlink" x="0px" y="0px"
	 viewBox="0 0 40 40" style="enable-background:new 0 0 40 40;" xml:space="preserve">
<path style="fill:#F29100;" d="M38.7,17.5L21.1,2.4c-0.7-0.6-1.6-0.6-2.3,0L1.3,17.5c-0.7,0.6-0.8,1.7-0.2,2.5
	c0.6,0.7,1.7,0.8,2.5,0.2L20,6.1l16.4,14.1c0.3,0.3,0.7,0.4,1.1,0.4c0.5,0,1-0.2,1.3-0.6C39.5,19.3,39.4,18.2,38.7,17.5L38.7,17.5z
	 M20.6,8.5c-0.3-0.3-0.8-0.3-1.1,0L6.2,19.9c-0.2,0.2-0.3,0.4-0.3,0.7v16.5c0,0.5,0.4,0.9,0.9,0.9h26.5c0.5,0,0.9-0.4,0.9-0.9V20.6
	c0-0.3-0.1-0.5-0.3-0.7L20.6,8.5z M32.4,36.2H7.6V21L20,10.4L32.4,21V36.2z"/>
</svg>
