<?xml version="1.0" encoding="utf-8"?>
<!-- Generator: Adobe Illustrator 22.1.0, SVG Export Plug-In . SVG Version: 6.00 Build 0)  -->
<svg version="1.1" id="Capa_1" xmlns="http://www.w3.org/2000/svg" xmlns:xlink="http://www.w3.org/1999/xlink" x="0px" y="0px"
	 viewBox="0 0 40 40" style="enable-background:new 0 0 40 40;" xml:space="preserve">
<path style="fill:#F29100;" d="M38.6,29.1l-0.4-0.9l-1.3-2.7l-0.4-0.8l-1.4-2.9L34.7,21l-1.4-3l-0.5-1l-0.7-1.4l-0.6-1.3l-0.9-1.9
	l-0.5-0.9l-1.2-2.4l0,0L28.8,9h-2.3h-2.3h-3h-2.1h-3h-2.3h-2.1l-0.1,0.2l-1.2,2.3l-0.5,1l-0.9,1.7l-0.7,1.4l-0.7,1.4l-0.5,1L5.6,21
	l-0.4,0.8l-1.5,2.9l-0.4,0.8l-1.4,2.7L1.5,29l-1,2h39.1L38.6,29.1z M12.1,9.6h16.3l0.8,1.7c-0.4-0.2-0.7-0.5-0.9-0.8
	c-0.2-0.2-0.5-0.2-0.7,0c-0.5,0.7-1.3,1.1-2.2,1.1c-0.9,0-1.7-0.4-2.2-1.1c-0.1-0.2-0.3-0.2-0.5-0.1v0c-0.1,0-0.3,0.1-0.4,0.2
	c-0.5,0.7-1.3,1.1-2.1,1.1c-0.9,0-1.6-0.4-2.1-1.1c-0.1-0.1-0.2-0.2-0.4-0.2v0c-0.2-0.1-0.4,0-0.5,0.1c-0.5,0.7-1.3,1.1-2.2,1.1
	c-0.9,0-1.7-0.4-2.2-1.1c-0.2-0.2-0.5-0.2-0.7,0c-0.2,0.2-0.4,0.4-0.6,0.6L12.1,9.6z M12.3,11.4c0.7,0.7,1.6,1.1,2.6,1.1
	c1,0,1.9-0.4,2.6-1.1c0.7,0.7,1.6,1.1,2.6,1.1c0,0,0.1,0,0.1,0c0,0,0.1,0,0.1,0c1,0,1.9-0.4,2.6-1.1c0.7,0.7,1.6,1.1,2.6,1.1
	c1,0,1.9-0.4,2.6-1.1c0.5,0.5,1.1,0.8,1.8,1l0.6,1.3c-0.1,0-0.2,0.1-0.2,0.1C29.7,14.5,28.9,15,28,15c-0.9,0-1.7-0.4-2.2-1.1
	c-0.2-0.2-0.5-0.2-0.7,0c-0.5,0.7-1.3,1.1-2.2,1.1c-0.9,0-1.7-0.4-2.2-1.1c-0.1-0.1-0.3-0.2-0.4-0.2c-0.2,0-0.3,0-0.4,0.2
	c-0.5,0.7-1.3,1.1-2.2,1.1c-0.9,0-1.7-0.4-2.2-1.1c-0.2-0.2-0.5-0.2-0.7,0c-0.5,0.7-1.3,1.1-2.2,1.1c-0.9,0-1.7-0.4-2.2-1.1
	c0,0-0.1-0.1-0.1-0.1l0.7-1.4C11.3,12.2,11.9,11.9,12.3,11.4z M9.3,15.2c0.2-0.1,0.4-0.3,0.5-0.4c0.7,0.7,1.6,1.1,2.6,1.1
	c1,0,1.9-0.4,2.6-1.1c0.7,0.7,1.6,1.1,2.6,1.1c0.1,0,0.1,0,0.1,0v0h0c0.9,0,1.8-0.4,2.5-1c0.7,0.6,1.6,1,2.5,1v0c0.1,0,0.1,0,0.2,0
	c1,0,1.9-0.4,2.6-1.1c0.7,0.7,1.6,1.1,2.6,1.1c1,0,1.9-0.4,2.6-1.1c0.2,0.2,0.4,0.3,0.6,0.5l1.1,2.3c-0.5,0.4-1.1,0.6-1.7,0.6
	c-0.9,0-1.7-0.4-2.2-1.1c-0.2-0.2-0.5-0.2-0.7,0c-0.5,0.7-1.3,1.1-2.2,1.1c-0.9,0-1.7-0.4-2.2-1.1c-0.1-0.2-0.3-0.2-0.5-0.1v0
	c-0.1,0-0.3,0.1-0.4,0.2c-0.5,0.7-1.3,1.1-2.1,1.1c-0.9,0-1.6-0.4-2.1-1.1c-0.1-0.1-0.2-0.2-0.4-0.2v0c-0.2-0.1-0.4,0-0.5,0.1
	c-0.5,0.7-1.3,1.1-2.2,1.1c-0.9,0-1.7-0.4-2.2-1.1c-0.2-0.2-0.5-0.2-0.7,0c-0.5,0.7-1.3,1.1-2.2,1.1c-0.6,0-1.2-0.2-1.7-0.6
	L9.3,15.2z M7.7,18.3C8.3,18.8,9,19,9.8,19c1,0,1.9-0.4,2.6-1.1C13,18.6,14,19,14.9,19c1,0,1.9-0.4,2.6-1.1c0.7,0.7,1.6,1.1,2.6,1.1
	c0,0,0.1,0,0.1,0c0,0,0.1,0,0.1,0c1,0,1.9-0.4,2.6-1.1c0.7,0.7,1.6,1.1,2.6,1.1c1,0,1.9-0.4,2.6-1.1c0.7,0.7,1.6,1.1,2.6,1.1
	c0.8,0,1.5-0.3,2.1-0.7l1.4,3c-0.3,0.1-0.6,0.2-1,0.2c-0.9,0-1.7-0.4-2.2-1.1c-0.2-0.2-0.5-0.2-0.7,0c-0.5,0.7-1.3,1.1-2.2,1.1
	c-0.9,0-1.7-0.4-2.2-1.1c-0.2-0.2-0.5-0.2-0.7,0c-0.5,0.7-1.3,1.1-2.2,1.1c-0.9,0-1.7-0.4-2.2-1.1c-0.1-0.1-0.3-0.2-0.4-0.2
	c-0.2,0-0.3,0-0.4,0.2c-0.5,0.7-1.3,1.1-2.2,1.1c-0.9,0-1.7-0.4-2.2-1.1c-0.2-0.2-0.5-0.2-0.7,0c-0.5,0.7-1.3,1.1-2.2,1.1
	c-0.9,0-1.7-0.4-2.2-1.1c-0.2-0.2-0.5-0.2-0.7,0c-0.5,0.7-1.3,1.1-2.2,1.1c-0.4,0-0.7-0.1-1.1-0.2L7.7,18.3z M5.7,22.1
	c0.5,0.2,1,0.3,1.5,0.3c1,0,1.9-0.4,2.6-1.1c0.7,0.7,1.6,1.1,2.6,1.1c1,0,1.9-0.4,2.6-1.1c0.7,0.7,1.6,1.1,2.6,1.1
	c0.1,0,0.1,0,0.1,0v0h0c0.9,0,1.8-0.4,2.5-1c0.7,0.6,1.6,1,2.5,1v0c0.1,0,0.1,0,0.2,0c1,0,1.9-0.4,2.6-1.1c0.7,0.7,1.6,1.1,2.6,1.1
	c1,0,1.9-0.4,2.6-1.1c0.7,0.7,1.6,1.1,2.6,1.1c0.5,0,0.9-0.1,1.4-0.3l1.3,2.8c-0.1,0-0.1,0-0.1,0c-0.9,0-1.7-0.4-2.2-1.1
	c-0.2-0.2-0.5-0.2-0.7,0c-0.5,0.7-1.3,1.1-2.2,1.1c-0.9,0-1.7-0.4-2.2-1.1c-0.2-0.2-0.5-0.2-0.7,0c-0.5,0.7-1.3,1.1-2.2,1.1
	c-0.9,0-1.7-0.4-2.2-1.1c-0.1-0.2-0.3-0.2-0.5-0.1v0c-0.1,0-0.3,0.1-0.4,0.2c-0.5,0.7-1.3,1.1-2.1,1.1c-0.9,0-1.6-0.4-2.1-1.1
	c-0.1-0.1-0.2-0.2-0.4-0.2v0c-0.2-0.1-0.4,0-0.5,0.1c-0.5,0.7-1.3,1.1-2.2,1.1c-0.9,0-1.7-0.4-2.2-1.1c-0.2-0.2-0.5-0.2-0.7,0
	c-0.5,0.7-1.3,1.1-2.2,1.1c-0.9,0-1.7-0.4-2.2-1.1c-0.2-0.2-0.5-0.2-0.7,0c-0.5,0.7-1.3,1.1-2.2,1.1c-0.1,0-0.2,0-0.3,0L5.7,22.1z
	 M3.9,25.7c0.2,0,0.5,0.1,0.7,0.1c1,0,1.9-0.4,2.6-1.1c0.7,0.7,1.6,1.1,2.6,1.1c1,0,1.9-0.4,2.6-1.1c0.7,0.7,1.6,1.1,2.6,1.1
	c1,0,1.9-0.4,2.6-1.1c0.7,0.7,1.6,1.1,2.6,1.1c0,0,0.1,0,0.1,0c0,0,0.1,0,0.1,0c1,0,1.9-0.4,2.6-1.1c0.7,0.7,1.6,1.1,2.6,1.1
	c1,0,1.9-0.4,2.6-1.1c0.7,0.7,1.6,1.1,2.6,1.1c1,0,1.9-0.4,2.6-1.1c0.7,0.7,1.6,1.1,2.6,1.1c0.2,0,0.4,0,0.6-0.1l1.1,2.3
	c-0.5-0.2-1-0.5-1.3-1c-0.2-0.2-0.5-0.2-0.7,0c-0.5,0.7-1.3,1.1-2.2,1.1c-0.9,0-1.7-0.4-2.2-1.1c-0.2-0.2-0.5-0.2-0.7,0
	c-0.5,0.7-1.3,1.1-2.2,1.1c-0.9,0-1.7-0.4-2.2-1.1c-0.2-0.2-0.5-0.2-0.7,0c-0.5,0.7-1.3,1.1-2.2,1.1c-0.9,0-1.7-0.4-2.2-1.1
	c-0.1-0.1-0.3-0.2-0.4-0.1c-0.2,0-0.3,0-0.4,0.1c-0.5,0.7-1.3,1.1-2.2,1.1c-0.9,0-1.7-0.4-2.2-1.1c-0.2-0.2-0.5-0.2-0.7,0
	c-0.5,0.7-1.3,1.1-2.2,1.1c-0.9,0-1.7-0.4-2.2-1.1c-0.2-0.2-0.5-0.2-0.7,0c-0.5,0.7-1.3,1.1-2.2,1.1c-0.9,0-1.7-0.4-2.2-1.1
	c-0.2-0.2-0.5-0.2-0.7,0c-0.4,0.5-1,0.9-1.6,1.1L3.9,25.7z M1.5,30.4l0.7-1.3c0.9,0,1.8-0.4,2.5-1.1c0.7,0.7,1.6,1.1,2.6,1.1
	c1,0,1.9-0.4,2.6-1.1c0.7,0.7,1.6,1.1,2.6,1.1c1,0,1.9-0.4,2.6-1.1c0.7,0.7,1.6,1.1,2.6,1.1c0.1,0,0.1,0,0.1,0v0l0,0
	c0.9,0,1.8-0.4,2.5-1c0.7,0.6,1.6,1,2.5,1v0c0.1,0,0.1,0,0.2,0c1,0,1.9-0.4,2.6-1.1c0.7,0.7,1.6,1.1,2.6,1.1c1,0,1.9-0.4,2.6-1.1
	c0.7,0.7,1.6,1.1,2.6,1.1c1,0,1.9-0.4,2.6-1.1c0.6,0.6,1.4,0.9,2.2,1l0.6,1.3H1.5z"/>
</svg>
