<?xml version="1.0" encoding="utf-8"?>
<!-- Generator: Adobe Illustrator 16.0.0, SVG Export Plug-In . SVG Version: 6.00 Build 0)  -->
<!DOCTYPE svg PUBLIC "-//W3C//DTD SVG 1.1//EN" "http://www.w3.org/Graphics/SVG/1.1/DTD/svg11.dtd">
<svg version="1.1" id="Capa_1" xmlns="http://www.w3.org/2000/svg" xmlns:xlink="http://www.w3.org/1999/xlink" x="0px" y="0px"
	 width="526.022px" height="145.328px" viewBox="0 0 526.022 145.328" enable-background="new 0 0 526.022 145.328"
	 xml:space="preserve">
<g>
	<rect x="0.5" y="0.5" fill="#FCF4DF" width="525.022" height="72.164"/>
	<path fill="#FFFFFF" d="M526.022,73.164H0V0h526.022V73.164z M1,72.164h524.022V1H1V72.164z"/>
</g>
<g>
	<rect x="0.5" y="72.664" fill="#FCF4DF" width="525.022" height="72.164"/>
	<path fill="#FFFFFF" d="M526.022,145.328H0V72.164h526.022V145.328z M1,144.328h524.022V73.164H1V144.328z"/>
</g>
<path fill="#FFFFFF" d="M106.006,145.328H0V0h106.006V145.328z M1,144.328h104.006V1H1V144.328z"/>
<path fill="#FFFFFF" d="M211.009,145.328H105.006V0h106.003V145.328z M106.006,144.328h104.003V1H106.006V144.328z"/>
<path fill="#FFFFFF" d="M316.014,145.328H210.009V0h106.005V145.328z M211.009,144.328h104.005V1H211.009V144.328z"/>
<path fill="#FFFFFF" d="M421.018,145.328H315.014V0h106.004V145.328z M316.014,144.328h104.004V1H316.014V144.328z"/>
<path fill="#FFFFFF" d="M526.022,145.328H420.018V0h106.005V145.328z M421.018,144.328h104.005V1H421.018V144.328z"/>
<path fill="#F7A800" d="M31.589,62.852H17.297v-1h13.292v-8.089h10.967C42.61,51.58,49.59,38.267,63.02,38
	c13.867-0.274,18.773-15.669,18.821-15.825l0.109-0.353h5.365v-7.918H17.297v-1h71.018v9.918h-5.638
	C81.83,25.2,76.421,38.735,63.039,39C49.13,39.276,42.398,54.312,42.332,54.463l-0.131,0.3H31.589V62.852z"/>
<polygon fill="#F7A800" points="17.672,67.877 16.672,67.873 16.795,43.125 10.125,40.491 19.627,37.861 9.942,34.973 
	16.795,32.942 16.672,5.544 17.672,5.54 17.798,33.688 13.452,34.976 23.248,37.896 13.27,40.658 17.798,42.446 "/>
<path fill="#F7A800" d="M131.353,63.148h-9.39v-1h9.39c6.294,0,8.749-3.623,11.593-7.817c3.758-5.543,8.017-11.826,21.9-12.017
	c9.139-0.125,16.137-2.834,20.798-8.052c6.633-7.424,6.489-17.79,6.37-20.062h-70.051v-1h70.97l0.045,0.45
	c0.013,0.125,1.16,12.597-6.582,21.271c-4.855,5.439-12.102,8.263-21.536,8.393c-13.362,0.183-17.466,6.237-21.086,11.578
	C140.896,59.138,138.177,63.148,131.353,63.148z"/>
<polygon fill="#F7A800" points="122.213,67.878 121.213,67.872 121.336,45.633 114.665,42.999 124.169,40.369 114.483,37.481 
	121.338,35.45 121.338,5.542 122.338,5.542 122.338,36.197 117.993,37.484 127.788,40.404 117.812,43.166 122.34,44.954 "/>
<path fill="#F7A800" d="M231.755,63.148h-9.792v-1h9.792c7.305,0,9.896-4.146,12.896-8.947c3.786-6.056,8.076-12.92,22.687-13.334
	c13.838-0.392,17.123-17.17,17.155-17.34l0.076-0.408h7.411V14.2h-70.018v-1h71.018v9.918h-7.594
	c-0.617,2.659-4.642,17.369-18.02,17.748c-14.075,0.399-18.215,7.021-21.867,12.865C242.473,58.574,239.613,63.148,231.755,63.148z"
	/>
<polygon fill="#F7A800" points="222.337,67.877 221.337,67.873 221.461,44.421 214.79,41.787 224.294,39.157 214.608,36.269 
	221.461,34.238 221.337,5.544 222.337,5.54 222.465,34.984 218.118,36.272 227.913,39.192 217.937,41.954 222.465,43.742 "/>
<path fill="#F7A800" d="M356.402,62.852h-25.105v-1h24.102l-0.026-8.124l0.536,0.036c0.659,0.05,16.256,0.903,17.623-15.306
	l0.038-0.456L374.027,38c18.851-0.091,19.762-15.063,19.792-15.7l0.021-0.477l7.474,0v-7.918h-70.018v-1h71.018v9.918h-7.542
	c-0.323,2.695-2.802,15.865-20.287,16.173c-1.526,14.944-15.071,15.78-18.063,15.78c-0.016,0-0.031,0-0.046,0L356.402,62.852z"/>
<polygon fill="#F7A800" points="331.672,67.877 330.672,67.873 330.795,43.125 324.124,40.491 333.628,37.861 323.942,34.973 
	330.795,32.942 330.672,5.544 331.672,5.54 331.799,33.688 327.452,34.976 337.247,37.896 327.271,40.658 331.799,42.446 "/>
<polygon fill="#F7A800" points="463.665,63 438.561,63 438.561,62 462.663,62 462.637,53.024 508.578,25.821 508.578,14.2 
	438.561,14.2 438.561,13.2 509.578,13.2 509.578,26.392 463.639,53.593 "/>
<polygon fill="#F7A800" points="438.936,67.877 437.936,67.873 438.059,44.421 431.388,41.787 440.892,39.157 431.206,36.269 
	438.059,34.238 437.936,5.544 438.936,5.54 439.062,34.984 434.716,36.272 444.511,39.192 434.534,41.954 439.062,43.742 "/>
<path fill="#F7A800" d="M47.402,134.313H17.297v-1h29.102l-0.026-9.086h0.501c27.342,0,32.944-11.45,32.944-28.642v-0.5h7.496
	v-9.018H17.297v-1h71.018v11.018h-7.498c-0.148,20.814-9.577,29.028-33.441,29.141L47.402,134.313z"/>
<polygon fill="#F7A800" points="17.672,139.877 16.672,139.873 16.795,115.288 10.125,112.654 19.627,110.024 9.942,107.136 
	16.795,105.106 16.672,77.544 17.672,77.54 17.798,105.853 13.453,107.139 23.248,110.06 13.27,112.821 17.798,114.609 "/>
<path fill="#F7A800" d="M146.079,134.362h-24.116v-1h23.116c0.114-2.39,1.246-12.381,12.072-13.909
	c18.393-2.597,27.333-10.401,27.333-23.857v-0.5h7.496v-9.028h-70.018v-1h71.018v11.028h-7.5
	c-0.227,13.547-9.708,21.738-28.188,24.348c-11.38,1.606-11.229,13.289-11.226,13.406L146.079,134.362z"/>
<polygon fill="#F7A800" points="122.338,139.878 121.338,139.872 121.461,117.821 114.79,115.188 124.294,112.558 114.608,109.67 
	121.463,107.64 121.463,77.732 122.463,77.732 122.463,108.387 118.118,109.673 127.913,112.594 117.937,115.354 122.465,117.143 
	"/>
<path fill="#F7A800" d="M221.977,134.599c-0.006,0-0.012,0-0.016,0l0.004-1h0.001c0.131,0,8.52-0.058,11.116-5.993l0.19-0.437
	l0.446,0.169c0.615,0.235,15.17,5.53,24.039-12.53c2.836-5.773,8.022-6.35,13.039-6.907c6.484-0.721,12.608-1.401,13.689-13.161
	l0.042-0.454h7.452v-8.219h-70.018v-1h71.018v10.219h-7.543c-1.277,12.135-8.014,12.885-14.53,13.609
	c-4.967,0.552-9.657,1.073-12.251,6.354c-8.405,17.115-22.204,13.961-24.85,13.169C230.793,134.495,222.522,134.599,221.977,134.599
	z"/>
<polygon fill="#F7A800" points="222.337,139.878 221.337,139.872 221.461,117.823 214.79,115.189 224.294,112.56 214.608,109.672 
	221.463,107.64 221.463,77.732 222.463,77.732 222.463,108.386 218.118,109.675 227.913,112.596 217.937,115.356 222.465,117.145 
	"/>
<polygon fill="#F7A800" points="373.109,134.313 331.297,134.313 331.297,133.313 372.691,133.313 401.314,104.367 401.314,86.067 
	331.297,86.067 331.297,85.067 402.314,85.067 402.314,104.778 "/>
<polygon fill="#F7A800" points="331.672,139.878 330.672,139.872 330.795,118.118 324.124,115.484 333.628,112.854 323.942,109.967 
	330.795,107.937 330.672,77.544 331.672,77.54 331.799,108.683 327.452,109.97 337.247,112.891 327.271,115.651 331.799,117.439 "/>
<path fill="#F7A800" d="M480.145,134.313h-42.104v-1h41.106c0.227-21.292,14.946-29.056,28.911-29.236v-18.01h-70.018v-1h71.018
	v20.007h-0.5c-13.736,0-28.414,7.55-28.414,28.739V134.313z"/>
<polygon fill="#F7A800" points="438.415,139.878 437.415,139.872 437.539,118.029 430.873,115.39 440.378,112.749 430.691,109.851 
	437.541,107.815 437.541,77.808 438.541,77.808 438.541,108.562 434.191,109.854 443.985,112.784 434.01,115.556 438.543,117.352 
	"/>
<g>
	<g>
		<path fill="#5E4111" d="M91.018,60.516v-7.137h-2.042v-1.027h0.153c0.944,0,2.041-0.222,2.319-1.472v-0.194h1.152v9.831H91.018z"
			/>
	</g>
</g>
<g>
	<g>
		<path fill="#5E4111" d="M198.467,60.516h-5.749c0-4.277,4.124-4.18,4.124-7.234c0-0.805-0.347-1.486-1.222-1.486
			c-1.18,0-1.375,1.056-1.375,2.055h-1.5c0-1.958,0.807-3.166,2.902-3.166c2.014,0,2.777,1.194,2.777,2.625
			c0,3.263-3.193,3.471-3.943,5.874h3.985V60.516z"/>
	</g>
</g>
<g>
	<g>
		<path fill="#5E4111" d="M294.286,57.78c0,0.861,0.278,1.819,1.348,1.819c0.985,0,1.375-0.792,1.375-1.763
			c0-1.208-0.403-1.833-1.598-1.833H294.8v-1.111h0.57c1.055,0,1.416-0.722,1.416-1.68c0-0.708-0.32-1.417-1.139-1.417
			c-0.973,0-1.25,0.833-1.25,1.722h-1.5c0-1.833,0.959-2.833,2.833-2.833c1.181,0,2.638,0.542,2.638,2.513
			c0,1.014-0.596,2-1.568,2.152v0.042c1.014,0.083,1.791,0.902,1.791,2.277c0,1.944-0.972,3.041-2.999,3.041
			c-1.777,0-2.805-0.875-2.805-2.93H294.286z"/>
	</g>
</g>
<g>
	<g>
		<path fill="#5E4111" d="M402.935,56.947l3.401-6.263h1.61v6.36h1.07v1.263h-1.07v2.208h-1.499v-2.208h-3.513V56.947z
			 M406.447,52.99h-0.028l-2.207,4.055h2.235V52.99z"/>
	</g>
</g>
<g>
	<g>
		<path fill="#5E4111" d="M510.979,57.78c0,0.861,0.278,1.819,1.347,1.819c0.986,0,1.375-0.792,1.375-1.763
			c0-1.208-0.402-1.833-1.597-1.833h-0.611v-1.111h0.569c1.056,0,1.417-0.722,1.417-1.68c0-0.708-0.32-1.417-1.139-1.417
			c-0.973,0-1.25,0.833-1.25,1.722h-1.5c0-1.833,0.958-2.833,2.833-2.833c1.18,0,2.638,0.542,2.638,2.513
			c0,1.014-0.597,2-1.568,2.152v0.042c1.014,0.083,1.791,0.902,1.791,2.277c0,1.944-0.972,3.041-2.999,3.041
			c-1.777,0-2.805-0.875-2.805-2.93H510.979z"/>
	</g>
</g>
<g>
	<g>
		<path fill="#5E4111" d="M92.402,124.535c0-0.569-0.264-1.278-1.055-1.278c-1.486,0-1.569,1.958-1.569,3.388l0.042,0.028
			c0.389-0.708,1.055-1.042,1.917-1.042c1.347,0,2.43,0.972,2.43,2.93c0,2.264-0.93,3.61-3.013,3.61
			c-2.485,0-2.958-1.888-2.958-4.707c0-2.944,0.542-5.318,3.138-5.318c1.722,0,2.652,0.778,2.652,2.389H92.402z M91.277,131.061
			c0.972,0,1.305-0.958,1.305-2.11c0-1.361-0.402-2.125-1.305-2.125c-1.152,0-1.361,1.014-1.361,2.194
			C89.917,130.158,90.347,131.061,91.277,131.061z"/>
	</g>
</g>
<g>
	<g>
		<path fill="#5E4111" d="M192.897,122.34h5.832v1.25c-1.542,2.013-2.875,5.429-3.098,8.387h-1.666
			c0.223-2.93,1.666-6.207,3.236-8.22h-4.305V122.34z"/>
	</g>
</g>
<g>
	<g>
		<path fill="#5E4111" d="M292.841,129.228c0-1.458,0.709-2.263,1.681-2.458v-0.028c-0.847-0.292-1.36-0.944-1.36-2.125
			c0-1.527,1.014-2.472,2.652-2.472s2.652,0.944,2.652,2.472c0,1.18-0.515,1.833-1.361,2.125v0.028c0.972,0.194,1.68,1,1.68,2.458
			c0,1.93-0.958,2.944-2.971,2.944C293.8,132.171,292.841,131.158,292.841,129.228z M295.813,131.061
			c1.11,0,1.389-0.833,1.389-1.861c0-1.041-0.278-1.86-1.389-1.86c-1.111,0-1.389,0.819-1.389,1.86
			C294.425,130.228,294.702,131.061,295.813,131.061z M295.813,126.229c0.985,0,1.235-0.708,1.235-1.5
			c0-0.778-0.25-1.472-1.235-1.472c-0.986,0-1.236,0.694-1.236,1.472C294.577,125.521,294.827,126.229,295.813,126.229z"/>
	</g>
</g>
<g>
	<g>
		<path fill="#5E4111" d="M403.761,129.783c0,0.569,0.264,1.277,1.055,1.277c1.486,0,1.568-1.958,1.568-3.388l-0.041-0.027
			c-0.389,0.708-1.055,1.041-1.916,1.041c-1.348,0-2.43-0.972-2.43-2.93c0-2.263,0.93-3.61,3.013-3.61
			c2.485,0,2.958,1.889,2.958,4.708c0,2.943-0.542,5.318-3.139,5.318c-1.722,0-2.652-0.777-2.652-2.388H403.761z M404.885,123.257
			c-0.972,0-1.306,0.958-1.306,2.111c0,1.361,0.402,2.125,1.306,2.125c1.152,0,1.36-1.014,1.36-2.194
			C406.245,124.16,405.815,123.257,404.885,123.257z"/>
	</g>
</g>
<g>
	<g>
		<path fill="#5E4111" d="M511.138,131.977v-7.137h-2.042v-1.027h0.153c0.943,0,2.041-0.222,2.318-1.472v-0.194h1.152v9.831H511.138
			z"/>
		<path fill="#5E4111" d="M518.26,122.146c1.888,0,2.944,1.194,2.944,5.013s-1.057,5.013-2.944,5.013s-2.944-1.194-2.944-5.013
			S516.372,122.146,518.26,122.146z M518.26,131.061c1.083,0,1.36-1.042,1.36-3.902s-0.277-3.902-1.36-3.902s-1.36,1.042-1.36,3.902
			S517.177,131.061,518.26,131.061z"/>
	</g>
</g>
</svg>
