<?xml version="1.0" encoding="utf-8"?>
<!-- Generator: Adobe Illustrator 22.0.0, SVG Export Plug-In . SVG Version: 6.00 Build 0)  -->
<svg version="1.1" id="Capa_1" xmlns="http://www.w3.org/2000/svg" xmlns:xlink="http://www.w3.org/1999/xlink" x="0px" y="0px"
	 viewBox="0 0 192 65.8" style="enable-background:new 0 0 192 65.8;" xml:space="preserve">
<g>
	<path style="fill:#6C5D35;" d="M6.3,26c-0.5-1.3-0.9-1.6-1.7-1.8c-0.3-0.1-0.7-0.1-0.9-0.1c-0.2,0-0.3-0.1-0.3-0.2
		c0-0.2,0.2-0.2,0.6-0.2c1.2,0,2.5,0.1,3.2,0.1c0.6,0,1.6-0.1,2.8-0.1c0.3,0,0.5,0.1,0.5,0.2c0,0.2-0.1,0.2-0.3,0.2
		c-0.4,0-0.7,0-0.9,0.2c-0.2,0.1-0.2,0.3-0.2,0.5c0,0.3,0.2,1,0.5,1.8l3.8,10.7h0.1c1-2.6,3.9-10.2,4.4-11.7
		c0.1-0.3,0.2-0.7,0.2-0.9c0-0.2-0.1-0.4-0.3-0.5c-0.3-0.1-0.6-0.1-0.9-0.1c-0.2,0-0.4,0-0.4-0.2c0-0.2,0.2-0.2,0.6-0.2
		c1.1,0,2.1,0.1,2.3,0.1c0.4,0,1.4-0.1,2.1-0.1c0.3,0,0.5,0.1,0.5,0.2c0,0.2-0.1,0.2-0.4,0.2c-0.2,0-0.7,0-1.1,0.3
		c-0.3,0.2-0.6,0.6-1.2,2.1c-0.9,2.2-1.5,3.5-2.7,6.4c-1.4,3.4-2.5,6-3,7.2c-0.6,1.4-0.7,1.7-1,1.7c-0.3,0-0.4-0.3-0.9-1.4L6.3,26z"
		/>
	<path style="fill:#6C5D35;" d="M23.8,35.3c-0.1,0-0.2,0-0.2,0.2l-1.2,3.4c-0.2,0.6-0.3,1.2-0.3,1.4c0,0.4,0.2,0.7,0.9,0.7h0.3
		c0.3,0,0.3,0,0.3,0.2c0,0.2-0.1,0.2-0.4,0.2c-0.7,0-1.7-0.1-2.4-0.1c-0.2,0-1.5,0.1-2.6,0.1c-0.3,0-0.4,0-0.4-0.2
		c0-0.1,0.1-0.2,0.3-0.2c0.2,0,0.5,0,0.7,0c1-0.1,1.5-0.9,1.9-2.1l5.6-14.8c0.3-0.7,0.4-0.9,0.6-0.9c0.2,0,0.3,0.2,0.6,0.8
		c0.5,1.3,4.1,10.9,5.5,14.5c0.8,2.1,1.5,2.5,2,2.6c0.3,0.1,0.7,0.1,0.9,0.1c0.2,0,0.3,0,0.3,0.2c0,0.2-0.2,0.2-1,0.2
		c-0.8,0-2.4,0-4.2,0c-0.4,0-0.7,0-0.7-0.2c0-0.1,0.1-0.2,0.3-0.2c0.2,0,0.3-0.3,0.2-0.5l-1.8-5c0-0.1-0.1-0.2-0.2-0.2H23.8z
		 M28.4,34.2c0.1,0,0.1-0.1,0.1-0.1l-2-5.8c0-0.1,0-0.2-0.1-0.2c-0.1,0-0.1,0.1-0.1,0.2L24.2,34c0,0.1,0,0.2,0.1,0.2H28.4z"/>
	<path style="fill:#6C5D35;" d="M40.9,34.7c0,3,0,4.6,0.5,5.1c0.4,0.3,1,0.5,2.7,0.5c1.2,0,2.1,0,2.6-0.7c0.3-0.3,0.5-1,0.6-1.4
		c0-0.2,0.1-0.4,0.2-0.4c0.2,0,0.2,0.1,0.2,0.4c0,0.3-0.2,2-0.3,2.7c-0.1,0.5-0.2,0.6-1.4,0.6c-1.6,0-2.8,0-3.8-0.1
		c-1,0-1.8-0.1-2.7-0.1c-0.2,0-0.7,0-1.3,0c-0.5,0-1.1,0-1.5,0c-0.3,0-0.4-0.1-0.4-0.2c0-0.1,0.1-0.2,0.4-0.2c0.3,0,0.6,0,0.8-0.1
		c0.4-0.1,0.6-0.6,0.6-1.3c0.1-1,0.1-2.9,0.1-5v-4.1c0-3.6,0-4.2,0-5c0-0.8-0.2-1.2-1-1.3c-0.2,0-0.4-0.1-0.7-0.1
		c-0.2,0-0.4,0-0.4-0.2c0-0.2,0.2-0.2,0.5-0.2c1,0,2.5,0.1,3.1,0.1c0.5,0,2.2-0.1,3-0.1c0.3,0,0.5,0.1,0.5,0.2
		c0,0.2-0.1,0.2-0.4,0.2c-0.2,0-0.6,0-0.9,0.1c-0.6,0.1-0.8,0.5-0.8,1.3c0,0.8,0,1.4,0,5V34.7z"/>
	<path style="fill:#6C5D35;" d="M51.2,30.5c0-3.6,0-4.2,0-5c0-0.8-0.2-1.2-1-1.3c-0.2,0-0.6-0.1-0.9-0.1c-0.2,0-0.4,0-0.4-0.2
		c0-0.2,0.2-0.2,0.5-0.2c0.6,0,1.3,0,1.8,0c0.6,0,1.1,0,1.4,0c0.7,0,5.2,0,5.6,0c0.4-0.1,0.8-0.1,1-0.1c0.1,0,0.2-0.1,0.4-0.1
		c0.1,0,0.1,0.1,0.1,0.2c0,0.2-0.1,0.4-0.2,1.5c0,0.2-0.1,1.3-0.1,1.6c0,0.1-0.1,0.3-0.2,0.3C59,27,59,26.9,59,26.7
		c0-0.2,0-0.6-0.1-0.8c-0.2-0.4-0.4-0.7-1.5-0.8c-0.4,0-2.7-0.1-3.2-0.1c-0.1,0-0.2,0.1-0.2,0.2v6c0,0.2,0,0.3,0.2,0.3
		c0.5,0,3.1,0,3.6,0c0.5,0,0.9-0.1,1.1-0.4c0.2-0.2,0.2-0.3,0.4-0.3c0.1,0,0.2,0,0.2,0.2c0,0.1-0.1,0.5-0.2,1.7
		c0,0.5-0.1,1.4-0.1,1.6c0,0.2,0,0.4-0.2,0.4c-0.2,0-0.2-0.1-0.2-0.2c0-0.2,0-0.5-0.1-0.9c-0.1-0.5-0.4-0.8-1.3-0.9
		c-0.4,0-2.6-0.1-3.2-0.1c-0.1,0-0.1,0.1-0.1,0.2v1.9c0,0.8,0,3,0,3.7c0,1.6,0.4,2,2.7,2c0.6,0,1.5,0,2.1-0.3c0.6-0.3,0.9-0.8,1-1.7
		c0-0.3,0.1-0.4,0.2-0.4c0.2,0,0.2,0.2,0.2,0.4c0,0.5-0.2,2.1-0.3,2.6c-0.2,0.6-0.4,0.6-1.2,0.6c-1.7,0-2.9,0-3.9-0.1
		c-1,0-1.7-0.1-2.3-0.1c-0.2,0-0.7,0-1.3,0c-0.5,0-1.1,0-1.5,0c-0.3,0-0.4-0.1-0.4-0.2c0-0.1,0.1-0.2,0.4-0.2c0.3,0,0.6,0,0.8-0.1
		c0.4-0.1,0.6-0.6,0.7-1.3c0.1-1,0.1-2.9,0.1-5V30.5z"/>
	<path style="fill:#6C5D35;" d="M64.9,30.5c0-3.6,0-4.2-0.1-5c0-0.8-0.2-1.2-1-1.3c-0.2,0-0.6-0.1-0.9-0.1c-0.2,0-0.4,0-0.4-0.2
		c0-0.2,0.2-0.2,0.5-0.2c1.2,0,2.6,0.1,3.1,0.1c0.8,0,2.5-0.1,3.2-0.1c1.4,0,2.9,0.1,4.1,1c0.6,0.4,1.5,1.6,1.5,3.2
		c0,1.7-0.7,3.4-3,5.3c2,2.6,3.5,4.7,4.9,6.2c1.3,1.4,2.2,1.5,2.5,1.6c0.2,0,0.4,0.1,0.6,0.1c0.2,0,0.3,0.1,0.3,0.2
		c0,0.2-0.2,0.2-0.4,0.2h-2.1c-1.2,0-1.8-0.1-2.4-0.4c-1-0.5-1.8-1.6-3.1-3.5c-0.9-1.3-1.9-2.9-2.2-3.3c-0.1-0.1-0.2-0.2-0.4-0.2
		l-1.9-0.1c-0.1,0-0.2,0.1-0.2,0.2v0.3c0,2.2,0,4.1,0.1,5c0.1,0.7,0.2,1.2,0.9,1.3c0.3,0,0.8,0.1,1.1,0.1c0.2,0,0.3,0.1,0.3,0.2
		c0,0.2-0.2,0.2-0.4,0.2c-1.3,0-3-0.1-3.3-0.1c-0.4,0-1.8,0.1-2.7,0.1c-0.3,0-0.4-0.1-0.4-0.2c0-0.1,0.1-0.2,0.4-0.2
		c0.3,0,0.6,0,0.8-0.1c0.4-0.1,0.6-0.6,0.6-1.3c0.1-1,0.1-2.9,0.1-5V30.5z M67.5,32.4c0,0.3,0,0.4,0.2,0.4c0.5,0.2,1.1,0.2,1.7,0.2
		c0.9,0,1.2-0.1,1.6-0.4c0.7-0.5,1.3-1.6,1.3-3.5c0-3.3-2.1-4.3-3.4-4.3c-0.6,0-1,0-1.2,0.1c-0.2,0-0.2,0.1-0.2,0.3V32.4z"/>
	<path style="fill:#6C5D35;" d="M81.3,30.5c0-3.6,0-4.2-0.1-5c0-0.8-0.3-1.2-0.8-1.3c-0.2-0.1-0.5-0.1-0.8-0.1c-0.2,0-0.4,0-0.4-0.2
		c0-0.1,0.2-0.2,0.5-0.2c0.9,0,2.3,0.1,2.9,0.1c0.6,0,1.9-0.1,2.7-0.1c0.3,0,0.5,0.1,0.5,0.2c0,0.2-0.1,0.2-0.4,0.2
		c-0.2,0-0.4,0-0.7,0.1c-0.6,0.1-0.8,0.5-0.8,1.3c0,0.8,0,1.4,0,5v4.1c0,2.3,0,4.1,0.1,5.2c0.1,0.6,0.2,1.1,0.9,1.2
		c0.3,0,0.8,0.1,1.1,0.1c0.2,0,0.4,0.1,0.4,0.2c0,0.2-0.2,0.2-0.4,0.2c-1.5,0-2.9-0.1-3.5-0.1c-0.5,0-1.9,0.1-2.8,0.1
		c-0.3,0-0.4-0.1-0.4-0.2c0-0.1,0.1-0.2,0.4-0.2c0.3,0,0.6,0,0.8-0.1c0.5-0.1,0.6-0.5,0.6-1.2c0.1-1,0.1-2.9,0.1-5.1V30.5z"/>
	<path style="fill:#6C5D35;" d="M88.3,32.6c0-4,2.5-9.2,9.2-9.2c5.6,0,9,3.4,9,8.8c0,5.4-3.6,9.7-9.3,9.7
		C90.9,41.8,88.3,36.8,88.3,32.6z M103.5,33c0-5.3-2.9-8.6-6.6-8.6c-2.6,0-5.5,1.5-5.5,7.4c0,4.9,2.6,8.8,6.9,8.8
		C99.9,40.6,103.5,39.8,103.5,33z"/>
	<path style="fill:#6C5D35;" d="M114.9,32.6c0-4,2.5-9.2,9.2-9.2c5.6,0,9,3.4,9,8.8c0,5.4-3.6,9.7-9.3,9.7
		C117.5,41.8,114.9,36.8,114.9,32.6z M130,33c0-5.3-2.9-8.6-6.6-8.6c-2.6,0-5.5,1.5-5.5,7.4c0,4.9,2.6,8.8,6.9,8.8
		C126.4,40.6,130,39.8,130,33z"/>
	<path style="fill:#6C5D35;" d="M140.2,34.7c0,3,0,4.6,0.5,5.1c0.4,0.3,1,0.5,2.7,0.5c1.2,0,2.1,0,2.6-0.7c0.3-0.3,0.5-1,0.6-1.4
		c0-0.2,0.1-0.4,0.2-0.4c0.2,0,0.2,0.1,0.2,0.4c0,0.3-0.2,2-0.3,2.7c-0.1,0.5-0.2,0.6-1.4,0.6c-1.6,0-2.8,0-3.8-0.1
		c-1,0-1.8-0.1-2.7-0.1c-0.2,0-0.7,0-1.3,0c-0.5,0-1.1,0-1.5,0c-0.3,0-0.4-0.1-0.4-0.2c0-0.1,0.1-0.2,0.4-0.2c0.3,0,0.6,0,0.8-0.1
		c0.4-0.1,0.6-0.6,0.6-1.3c0.1-1,0.1-2.9,0.1-5v-4.1c0-3.6,0-4.2,0-5c0-0.8-0.2-1.2-1-1.3c-0.2,0-0.4-0.1-0.7-0.1
		c-0.2,0-0.4,0-0.4-0.2c0-0.2,0.2-0.2,0.5-0.2c1.1,0,2.5,0.1,3.1,0.1c0.5,0,2.2-0.1,3-0.1c0.3,0,0.5,0.1,0.5,0.2
		c0,0.2-0.1,0.2-0.4,0.2c-0.2,0-0.6,0-0.9,0.1c-0.6,0.1-0.8,0.5-0.8,1.3c0,0.8,0,1.4,0,5V34.7z"/>
	<path style="fill:#6C5D35;" d="M150.5,30.5c0-3.6,0-4.2,0-5c0-0.8-0.3-1.2-0.8-1.3c-0.2-0.1-0.5-0.1-0.8-0.1c-0.2,0-0.4,0-0.4-0.2
		c0-0.1,0.2-0.2,0.5-0.2c0.9,0,2.3,0.1,2.9,0.1c0.6,0,1.9-0.1,2.7-0.1c0.3,0,0.5,0.1,0.5,0.2c0,0.2-0.1,0.2-0.4,0.2
		c-0.2,0-0.4,0-0.7,0.1c-0.6,0.1-0.8,0.5-0.8,1.3c0,0.8,0,1.4,0,5v4.1c0,2.3,0,4.1,0.1,5.2c0.1,0.6,0.2,1.1,0.9,1.2
		c0.3,0,0.8,0.1,1.1,0.1c0.2,0,0.4,0.1,0.4,0.2c0,0.2-0.2,0.2-0.4,0.2c-1.5,0-2.9-0.1-3.5-0.1c-0.5,0-1.9,0.1-2.8,0.1
		c-0.3,0-0.4-0.1-0.4-0.2c0-0.1,0.1-0.2,0.4-0.2c0.3,0,0.6,0,0.8-0.1c0.4-0.1,0.6-0.5,0.7-1.2c0.1-1,0.1-2.9,0.1-5.1V30.5z"/>
	<path style="fill:#6C5D35;" d="M158.1,26c-0.5-1.3-0.9-1.6-1.7-1.8c-0.3-0.1-0.7-0.1-0.9-0.1c-0.2,0-0.3-0.1-0.3-0.2
		c0-0.2,0.2-0.2,0.6-0.2c1.2,0,2.5,0.1,3.2,0.1c0.6,0,1.6-0.1,2.7-0.1c0.3,0,0.5,0.1,0.5,0.2c0,0.2-0.1,0.2-0.3,0.2
		c-0.4,0-0.7,0-0.9,0.2c-0.2,0.1-0.2,0.3-0.2,0.5c0,0.3,0.2,1,0.5,1.8l3.8,10.7h0.1c1-2.6,3.9-10.2,4.4-11.7
		c0.1-0.3,0.2-0.7,0.2-0.9c0-0.2-0.1-0.4-0.3-0.5c-0.3-0.1-0.6-0.1-0.9-0.1c-0.2,0-0.4,0-0.4-0.2c0-0.2,0.2-0.2,0.6-0.2
		c1.1,0,2.1,0.1,2.3,0.1c0.4,0,1.4-0.1,2.1-0.1c0.3,0,0.5,0.1,0.5,0.2c0,0.2-0.1,0.2-0.4,0.2c-0.2,0-0.7,0-1.1,0.3
		c-0.3,0.2-0.6,0.6-1.2,2.1c-0.9,2.2-1.5,3.5-2.7,6.4c-1.4,3.4-2.5,6-3,7.2c-0.6,1.4-0.7,1.7-1,1.7c-0.3,0-0.4-0.3-0.8-1.4L158.1,26
		z"/>
	<path style="fill:#6C5D35;" d="M175.6,35.3c-0.1,0-0.2,0-0.2,0.2l-1.2,3.4c-0.2,0.6-0.3,1.2-0.3,1.4c0,0.4,0.2,0.7,0.9,0.7h0.3
		c0.3,0,0.3,0,0.3,0.2c0,0.2-0.1,0.2-0.4,0.2c-0.7,0-1.7-0.1-2.4-0.1c-0.2,0-1.5,0.1-2.6,0.1c-0.3,0-0.4,0-0.4-0.2
		c0-0.1,0.1-0.2,0.3-0.2c0.2,0,0.5,0,0.7,0c1-0.1,1.5-0.9,1.9-2.1l5.6-14.8c0.3-0.7,0.4-0.9,0.6-0.9c0.2,0,0.3,0.2,0.6,0.8
		c0.5,1.3,4.1,10.9,5.6,14.5c0.8,2.1,1.5,2.5,2,2.6c0.3,0.1,0.7,0.1,0.9,0.1c0.2,0,0.3,0,0.3,0.2c0,0.2-0.2,0.2-1,0.2
		c-0.8,0-2.4,0-4.2,0c-0.4,0-0.7,0-0.7-0.2c0-0.1,0.1-0.2,0.3-0.2c0.2,0,0.3-0.3,0.2-0.5l-1.8-5c0-0.1-0.1-0.2-0.2-0.2H175.6z
		 M180.1,34.2c0.1,0,0.1-0.1,0.1-0.1l-2-5.8c0-0.1,0-0.2-0.1-0.2c-0.1,0-0.1,0.1-0.1,0.2l-2.1,5.8c0,0.1,0,0.2,0.1,0.2H180.1z"/>
</g>
<g>
	<path style="fill:#FF6C0E;" d="M14.7,10.8V5.3l-4,5.5H9.6l-4-5.5v5.5H4.2V3h1.4l4.6,6.4L14.8,3h1.3v7.8H14.7z"/>
	<path style="fill:#FF6C0E;" d="M28.3,10.8l-4-6.3l-4.1,6.3h-1.6L23.7,3h1.1l5.2,7.8H28.3z"/>
	<path style="fill:#FF6C0E;" d="M32.3,10.8V3h7.2c0.6,0,1,0,1.4,0.1c0.4,0.1,0.7,0.2,0.9,0.4C42,3.8,42.2,4,42.3,4.3
		c0.1,0.3,0.1,0.6,0.1,1v3.3c0,0.4,0,0.7-0.1,1c-0.1,0.3-0.3,0.5-0.5,0.7c-0.2,0.2-0.5,0.3-0.9,0.4c-0.4,0.1-0.8,0.1-1.4,0.1H32.3z
		 M40.9,5.3c0-0.2,0-0.4-0.1-0.6c0-0.1-0.1-0.3-0.2-0.4c-0.1-0.1-0.3-0.2-0.4-0.2c-0.2,0-0.4-0.1-0.7-0.1h-5.7v5.5h5.7
		c0.3,0,0.5,0,0.7-0.1c0.2,0,0.3-0.1,0.4-0.2c0.1-0.1,0.2-0.2,0.2-0.3c0-0.1,0.1-0.3,0.1-0.5V5.3z"/>
	<path style="fill:#FF6C0E;" d="M45.5,10.8V3h8v1.2h-6.6v2h6.2v1.2h-6.2v2.4h6.6v1.2H45.5z"/>
	<path style="fill:#FF6C0E;" d="M63.9,10.8L62,7.3h-4.1v3.5h-1.5V3h6.6c0.4,0,0.8,0,1.1,0.1c0.3,0.1,0.6,0.2,0.8,0.4
		c0.2,0.2,0.3,0.4,0.4,0.6c0.1,0.2,0.1,0.5,0.1,0.8v0.6c0,0.5-0.1,0.9-0.4,1.3c-0.3,0.3-0.8,0.5-1.5,0.6l1.8,3.5H63.9z M64,4.9
		c0-0.5-0.3-0.7-1-0.7h-5.2v2h5.2c0.7,0,1-0.2,1-0.7V4.9z"/>
	<path style="fill:#FF6C0E;" d="M77.4,10.8l-4-6.3l-4.1,6.3h-1.6L72.9,3h1.1l5.2,7.8H77.4z"/>
	<path style="fill:#FF6C0E;" d="M81.1,10.8V9.7h6.8c0.7,0,1-0.2,1-0.7V8c0-0.5-0.3-0.7-1-0.7h-4.6c-0.4,0-0.8,0-1.1-0.1
		c-0.3-0.1-0.6-0.2-0.8-0.4c-0.2-0.2-0.3-0.4-0.4-0.6c-0.1-0.2-0.1-0.5-0.1-0.8V4.9c0-0.3,0-0.5,0.1-0.8c0.1-0.2,0.2-0.4,0.4-0.6
		c0.2-0.2,0.5-0.3,0.8-0.4C82.5,3,82.9,3,83.3,3h6.6v1.2h-6.6c-0.7,0-1,0.2-1,0.7v0.5c0,0.5,0.3,0.7,1,0.7h4.6c0.4,0,0.8,0,1.1,0.1
		c0.3,0.1,0.6,0.2,0.8,0.4C90,6.8,90.1,7,90.2,7.2c0.1,0.2,0.1,0.5,0.1,0.8v1c0,0.3,0,0.5-0.1,0.8c-0.1,0.2-0.2,0.4-0.4,0.6
		c-0.2,0.2-0.5,0.3-0.8,0.4c-0.3,0.1-0.7,0.1-1.1,0.1H81.1z"/>
</g>
<line style="opacity:0.3;fill:none;stroke:#1D1D1B;stroke-width:0.7528;stroke-miterlimit:10;" x1="97.5" y1="10.3" x2="186.5" y2="10.3"/>
<g>
	<path style="fill:#FF6C0E;" d="M86.3,59v-5.5l-4,5.5h-1.2l-4-5.5V59h-1.4v-7.8h1.4l4.6,6.4l4.6-6.4h1.3V59H86.3z"/>
	<path style="fill:#FF6C0E;" d="M99.8,59l-4-6.3L91.7,59h-1.6l5.2-7.8h1.1l5.2,7.8H99.8z"/>
	<path style="fill:#FF6C0E;" d="M105.6,59v-6.7h-4.1v-1.2h9.6v1.2h-4V59H105.6z"/>
	<path style="fill:#FF6C0E;" d="M113.7,59v-7.8h8v1.2h-6.6v2h6.2v1.2h-6.2v2.4h6.6V59H113.7z"/>
	<path style="fill:#FF6C0E;" d="M132.1,59l-1.8-3.5h-4.1V59h-1.5v-7.8h6.6c0.4,0,0.8,0,1.1,0.1c0.3,0.1,0.6,0.2,0.8,0.4
		c0.2,0.2,0.3,0.4,0.4,0.6c0.1,0.2,0.1,0.5,0.1,0.8v0.6c0,0.5-0.1,0.9-0.4,1.3c-0.3,0.3-0.8,0.5-1.5,0.6l1.8,3.5H132.1z M132.3,53.1
		c0-0.5-0.3-0.7-1-0.7h-5.2v2h5.2c0.7,0,1-0.2,1-0.7V53.1z"/>
	<path style="fill:#FF6C0E;" d="M136.7,59v-7.8h1.5V59H136.7z"/>
	<path style="fill:#FF6C0E;" d="M150.4,59l-4-6.3l-4.1,6.3h-1.6l5.2-7.8h1.1l5.2,7.8H150.4z"/>
	<path style="fill:#FF6C0E;" d="M154.5,59v-7.8h1.5v6.7h6.3V59H154.5z"/>
	<path style="fill:#FF6C0E;" d="M165,59v-7.8h8v1.2h-6.6v2h6.2v1.2h-6.2v2.4h6.6V59H165z"/>
	<path style="fill:#FF6C0E;" d="M176.1,59v-1.2h6.8c0.7,0,1-0.2,1-0.7v-1c0-0.5-0.3-0.7-1-0.7h-4.6c-0.4,0-0.8,0-1.1-0.1
		c-0.3-0.1-0.6-0.2-0.8-0.4c-0.2-0.2-0.3-0.4-0.4-0.6c-0.1-0.2-0.1-0.5-0.1-0.8v-0.5c0-0.3,0-0.5,0.1-0.8c0.1-0.2,0.2-0.4,0.4-0.6
		c0.2-0.2,0.5-0.3,0.8-0.4c0.3-0.1,0.7-0.1,1.1-0.1h6.6v1.2h-6.6c-0.7,0-1,0.2-1,0.7v0.5c0,0.5,0.3,0.7,1,0.7h4.6
		c0.4,0,0.8,0,1.1,0.1c0.3,0.1,0.6,0.2,0.8,0.4c0.2,0.2,0.3,0.4,0.4,0.6c0.1,0.2,0.1,0.5,0.1,0.8v1c0,0.3,0,0.5-0.1,0.8
		c-0.1,0.2-0.2,0.4-0.4,0.6c-0.2,0.2-0.5,0.3-0.8,0.4c-0.3,0.1-0.7,0.1-1.1,0.1H176.1z"/>
</g>
<polyline style="opacity:0.3;fill:#64513D;stroke:#1D1D1B;stroke-width:0.6319;stroke-miterlimit:10;" points="3.9,59 10.5,59 
	67.5,59 "/>
</svg>
