<?xml version="1.0" encoding="utf-8"?>
<!-- Generator: Adobe Illustrator 22.1.0, SVG Export Plug-In . SVG Version: 6.00 Build 0)  -->
<svg version="1.1" id="Capa_1" xmlns="http://www.w3.org/2000/svg" xmlns:xlink="http://www.w3.org/1999/xlink" x="0px" y="0px"
	 viewBox="0 0 332.2 110" style="enable-background:new 0 0 332.2 110;" xml:space="preserve">
<g>
	<g>
		<path style="fill:#575047;" d="M13.1,43.4c-0.9-2.2-1.5-2.6-2.9-3.1c-0.6-0.2-1.2-0.2-1.5-0.2c-0.3,0-0.5-0.1-0.5-0.4
			c0-0.3,0.4-0.4,1-0.4c2,0,4.2,0.1,5.5,0.1c1,0,2.8-0.1,4.7-0.1c0.5,0,0.9,0.1,0.9,0.4c0,0.3-0.2,0.4-0.6,0.4c-0.6,0-1.2,0-1.5,0.3
			c-0.3,0.2-0.4,0.5-0.4,0.8c0,0.5,0.4,1.6,0.9,3.1l6.6,18.3h0.2c1.6-4.4,6.6-17.4,7.5-20c0.2-0.5,0.3-1.1,0.3-1.5
			c0-0.3-0.2-0.6-0.5-0.8c-0.5-0.2-1-0.2-1.5-0.2c-0.3,0-0.6,0-0.6-0.3c0-0.3,0.3-0.4,1.1-0.4c1.9,0,3.5,0.1,4,0.1
			c0.7,0,2.4-0.1,3.6-0.1c0.5,0,0.8,0.1,0.8,0.4c0,0.3-0.2,0.4-0.6,0.4c-0.4,0-1.2,0-1.9,0.5c-0.5,0.4-1.1,1-2.1,3.6
			c-1.5,3.8-2.5,6-4.6,10.9c-2.5,5.9-4.2,10.3-5.1,12.3c-1,2.4-1.2,3-1.8,3c-0.5,0-0.7-0.6-1.5-2.4L13.1,43.4z"/>
		<path style="fill:#575047;" d="M42.9,59.4c-0.2,0-0.3,0.1-0.4,0.3l-2,5.8c-0.4,1-0.6,2-0.6,2.5c0,0.7,0.4,1.2,1.5,1.2h0.6
			c0.5,0,0.6,0.1,0.6,0.3c0,0.3-0.2,0.4-0.6,0.4c-1.2,0-2.9-0.1-4-0.1c-0.4,0-2.5,0.1-4.5,0.1c-0.5,0-0.7-0.1-0.7-0.4
			c0-0.2,0.2-0.3,0.5-0.3c0.3,0,0.9,0,1.2-0.1c1.8-0.2,2.5-1.6,3.2-3.6l9.6-25.3c0.5-1.2,0.7-1.6,1.1-1.6c0.3,0,0.6,0.4,1,1.3
			c0.9,2.2,7,18.6,9.5,24.8c1.4,3.6,2.6,4.2,3.4,4.4c0.6,0.1,1.2,0.2,1.6,0.2c0.3,0,0.5,0,0.5,0.3c0,0.3-0.4,0.4-1.8,0.4
			c-1.4,0-4.2,0-7.2-0.1c-0.7,0-1.2,0-1.2-0.3c0-0.2,0.2-0.3,0.5-0.4c0.3-0.1,0.5-0.4,0.3-0.9l-3-8.5c-0.1-0.2-0.2-0.3-0.4-0.3H42.9
			z M50.7,57.4c0.2,0,0.2-0.1,0.2-0.2l-3.4-9.9c0-0.2-0.1-0.4-0.2-0.4c-0.1,0-0.2,0.2-0.2,0.4l-3.5,9.9c0,0.2,0,0.3,0.2,0.3H50.7z"
			/>
		<path style="fill:#575047;" d="M72.2,58.2c0,5.2,0,7.9,0.8,8.7c0.6,0.6,1.6,0.9,4.6,0.9c2,0,3.5,0,4.5-1.1c0.5-0.5,0.9-1.7,1-2.4
			c0-0.4,0.1-0.6,0.4-0.6c0.3,0,0.3,0.2,0.3,0.7c0,0.4-0.3,3.5-0.6,4.6C83,69.8,82.8,70,80.8,70c-2.8,0-4.7-0.1-6.5-0.1
			c-1.7-0.1-3.1-0.1-4.7-0.1c-0.4,0-1.3,0-2.2,0c-0.9,0-1.9,0.1-2.6,0.1c-0.5,0-0.8-0.1-0.8-0.4c0-0.2,0.2-0.3,0.6-0.3
			c0.6,0,1-0.1,1.4-0.2c0.8-0.2,1-1,1.1-2.2c0.2-1.7,0.2-4.9,0.2-8.6v-7.1c0-6.1,0-7.2-0.1-8.5c-0.1-1.4-0.4-2-1.6-2.3
			c-0.3-0.1-0.8-0.1-1.3-0.1c-0.4,0-0.7-0.1-0.7-0.4c0-0.3,0.3-0.4,0.8-0.4c1.8,0,4.2,0.1,5.2,0.1c0.9,0,3.7-0.1,5.2-0.1
			c0.5,0,0.8,0.1,0.8,0.4c0,0.3-0.2,0.4-0.7,0.4c-0.4,0-1,0-1.5,0.1c-1,0.2-1.3,0.9-1.4,2.3c-0.1,1.3-0.1,2.4-0.1,8.5V58.2z"/>
		<path style="fill:#575047;" d="M89.8,51.1c0-6.1,0-7.2-0.1-8.5c-0.1-1.4-0.4-2-1.6-2.3c-0.3-0.1-1-0.1-1.5-0.1
			c-0.4,0-0.6-0.1-0.6-0.4c0-0.3,0.3-0.4,0.8-0.4c1,0,2.1,0,3.1,0c1,0,1.9,0.1,2.4,0.1c1.2,0,8.8,0,9.6,0c0.7-0.1,1.3-0.2,1.6-0.2
			c0.2,0,0.4-0.2,0.6-0.2c0.2,0,0.2,0.2,0.2,0.4c0,0.3-0.2,0.8-0.3,2.6c0,0.4-0.1,2.2-0.2,2.6c0,0.2-0.1,0.4-0.4,0.4
			c-0.3,0-0.4-0.2-0.4-0.6c0-0.3,0-1-0.2-1.4c-0.3-0.7-0.6-1.2-2.6-1.4c-0.7-0.1-4.7-0.2-5.4-0.2c-0.2,0-0.3,0.1-0.3,0.4v10.2
			c0,0.3,0,0.4,0.3,0.4c0.8,0,5.2,0,6.1-0.1c0.9-0.1,1.5-0.2,1.8-0.6c0.3-0.3,0.4-0.5,0.6-0.5c0.2,0,0.3,0.1,0.3,0.3
			c0,0.2-0.2,0.9-0.3,2.9c0,0.8-0.2,2.4-0.2,2.7c0,0.3,0,0.8-0.3,0.8c-0.3,0-0.4-0.2-0.4-0.4c0-0.4,0-0.9-0.1-1.4
			c-0.2-0.8-0.7-1.4-2.2-1.6c-0.7-0.1-4.5-0.1-5.4-0.1c-0.2,0-0.2,0.2-0.2,0.4v3.2c0,1.4,0,5.1,0,6.3c0.1,2.8,0.7,3.4,4.6,3.4
			c1,0,2.6,0,3.6-0.5c1-0.5,1.4-1.3,1.7-3c0.1-0.4,0.2-0.6,0.4-0.6c0.3,0,0.3,0.3,0.3,0.7c0,0.9-0.3,3.7-0.5,4.5c-0.3,1-0.6,1-2.1,1
			c-2.9,0-5-0.1-6.6-0.1c-1.7-0.1-2.8-0.1-4-0.1c-0.4,0-1.3,0-2.2,0c-0.9,0-1.9,0.1-2.6,0.1c-0.5,0-0.8-0.1-0.8-0.4
			c0-0.2,0.1-0.3,0.6-0.3c0.6,0,1-0.1,1.4-0.2c0.8-0.2,1-1,1.1-2.2c0.2-1.7,0.2-4.9,0.2-8.6V51.1z"/>
		<path style="fill:#575047;" d="M113.2,51.1c0-6.1,0-7.2-0.1-8.5c-0.1-1.4-0.4-2-1.7-2.3c-0.3-0.1-1-0.1-1.5-0.1
			c-0.4,0-0.6-0.1-0.6-0.4c0-0.3,0.3-0.4,0.8-0.4c2,0,4.4,0.1,5.2,0.1c1.3,0,4.2-0.1,5.4-0.1c2.4,0,5,0.2,7,1.7
			c1.1,0.8,2.6,2.8,2.6,5.5c0,3-1.2,5.7-5,9c3.4,4.5,6,8.1,8.3,10.6c2.2,2.3,3.7,2.6,4.3,2.7c0.4,0.1,0.8,0.1,1.1,0.1
			c0.3,0,0.4,0.1,0.4,0.3c0,0.3-0.3,0.4-0.7,0.4h-3.6c-2.1,0-3.1-0.2-4.1-0.8c-1.6-0.9-3.1-2.8-5.2-5.9c-1.5-2.2-3.3-5-3.8-5.6
			c-0.2-0.2-0.4-0.3-0.7-0.3l-3.3-0.1c-0.2,0-0.3,0.1-0.3,0.3v0.6c0,3.8,0,6.9,0.2,8.6c0.1,1.2,0.4,2.1,1.5,2.2
			c0.6,0.1,1.4,0.2,1.9,0.2c0.3,0,0.5,0.1,0.5,0.3c0,0.3-0.3,0.4-0.8,0.4c-2.2,0-5-0.1-5.6-0.1c-0.7,0-3.1,0.1-4.7,0.1
			c-0.5,0-0.8-0.1-0.8-0.4c0-0.2,0.1-0.3,0.6-0.3c0.6,0,1-0.1,1.4-0.2c0.8-0.2,0.9-1,1.1-2.2c0.2-1.7,0.2-4.9,0.2-8.6V51.1z
			 M117.7,54.3c0,0.4,0.1,0.6,0.4,0.7c0.8,0.3,1.9,0.4,2.9,0.4c1.5,0,2-0.2,2.7-0.7c1.2-0.9,2.3-2.7,2.3-6.1c0-5.7-3.6-7.4-5.8-7.4
			c-1,0-1.6,0-2,0.2c-0.3,0.1-0.4,0.2-0.4,0.6V54.3z"/>
		<path style="fill:#575047;" d="M141.3,51.1c0-6.1,0-7.2-0.1-8.5c-0.1-1.4-0.4-2-1.3-2.3c-0.4-0.1-0.9-0.2-1.4-0.2
			c-0.4,0-0.6-0.1-0.6-0.4c0-0.2,0.3-0.3,0.9-0.3c1.5,0,3.9,0.1,5,0.1c1,0,3.2-0.1,4.7-0.1c0.5,0,0.8,0.1,0.8,0.3
			c0,0.3-0.2,0.4-0.6,0.4c-0.4,0-0.7,0-1.2,0.1c-1,0.2-1.3,0.9-1.4,2.3c-0.1,1.3-0.1,2.4-0.1,8.5v7.1c0,3.9,0,7.1,0.2,8.8
			c0.1,1.1,0.4,1.8,1.5,2c0.5,0.1,1.4,0.2,2,0.2c0.4,0,0.6,0.1,0.6,0.3c0,0.3-0.3,0.4-0.7,0.4c-2.5,0-4.9-0.1-6-0.1
			c-0.9,0-3.3,0.1-4.8,0.1c-0.5,0-0.8-0.1-0.8-0.4c0-0.2,0.1-0.3,0.6-0.3c0.6,0,1-0.1,1.4-0.2c0.8-0.2,1-0.8,1.1-2
			c0.2-1.7,0.2-4.9,0.2-8.8V51.1z"/>
		<path style="fill:#575047;" d="M153.2,54.7c0-6.9,4.3-15.8,15.8-15.8c9.5,0,15.4,5.8,15.4,15.1c0,9.2-6.1,16.5-15.8,16.5
			C157.6,70.5,153.2,61.8,153.2,54.7z M179.1,55.5c0-9-4.9-14.6-11.2-14.6c-4.4,0-9.4,2.6-9.4,12.6c0,8.4,4.4,15,11.7,15
			C172.9,68.5,179.1,67.1,179.1,55.5z"/>
		<path style="fill:#575047;" d="M198.6,54.7c0-6.9,4.3-15.8,15.8-15.8c9.5,0,15.4,5.8,15.4,15.1c0,9.2-6.1,16.5-15.8,16.5
			C203,70.5,198.6,61.8,198.6,54.7z M224.5,55.5c0-9-4.9-14.6-11.2-14.6c-4.4,0-9.4,2.6-9.4,12.6c0,8.4,4.4,15,11.7,15
			C218.3,68.5,224.5,67.1,224.5,55.5z"/>
		<path style="fill:#575047;" d="M241.8,58.2c0,5.2,0,7.9,0.8,8.7c0.7,0.6,1.6,0.9,4.6,0.9c2,0,3.5,0,4.5-1.1c0.5-0.5,0.9-1.7,1-2.4
			c0-0.4,0.1-0.6,0.4-0.6c0.3,0,0.3,0.2,0.3,0.7c0,0.4-0.3,3.5-0.6,4.6c-0.2,0.9-0.4,1.1-2.4,1.1c-2.8,0-4.7-0.1-6.5-0.1
			c-1.7-0.1-3.1-0.1-4.6-0.1c-0.4,0-1.3,0-2.2,0c-0.9,0-1.9,0.1-2.6,0.1c-0.5,0-0.8-0.1-0.8-0.4c0-0.2,0.2-0.3,0.6-0.3
			c0.6,0,1-0.1,1.4-0.2c0.8-0.2,1-1,1.1-2.2c0.2-1.7,0.2-4.9,0.2-8.6v-7.1c0-6.1,0-7.2-0.1-8.5c-0.1-1.4-0.4-2-1.6-2.3
			c-0.3-0.1-0.8-0.1-1.3-0.1c-0.4,0-0.6-0.1-0.6-0.4c0-0.3,0.3-0.4,0.8-0.4c1.8,0,4.2,0.1,5.2,0.1c0.9,0,3.7-0.1,5.2-0.1
			c0.5,0,0.8,0.1,0.8,0.4c0,0.3-0.2,0.4-0.7,0.4c-0.4,0-1,0-1.5,0.1c-1,0.2-1.3,0.9-1.4,2.3c-0.1,1.3-0.1,2.4-0.1,8.5V58.2z"/>
		<path style="fill:#575047;" d="M259.4,51.1c0-6.1,0-7.2-0.1-8.5c-0.1-1.4-0.5-2-1.3-2.3c-0.4-0.1-0.9-0.2-1.4-0.2
			c-0.4,0-0.6-0.1-0.6-0.4c0-0.2,0.3-0.3,0.9-0.3c1.5,0,3.9,0.1,5,0.1c1,0,3.2-0.1,4.7-0.1c0.5,0,0.8,0.1,0.8,0.3
			c0,0.3-0.2,0.4-0.6,0.4c-0.4,0-0.7,0-1.1,0.1c-1,0.2-1.3,0.9-1.4,2.3c-0.1,1.3-0.1,2.4-0.1,8.5v7.1c0,3.9,0,7.1,0.2,8.8
			c0.1,1.1,0.4,1.8,1.5,2c0.5,0.1,1.4,0.2,2,0.2c0.4,0,0.6,0.1,0.6,0.3c0,0.3-0.3,0.4-0.7,0.4c-2.5,0-4.9-0.1-6-0.1
			c-0.9,0-3.3,0.1-4.8,0.1c-0.5,0-0.8-0.1-0.8-0.4c0-0.2,0.2-0.3,0.6-0.3c0.6,0,1-0.1,1.4-0.2c0.8-0.2,1-0.8,1.1-2
			c0.2-1.7,0.2-4.9,0.2-8.8V51.1z"/>
		<path style="fill:#575047;" d="M272.4,43.4c-0.9-2.2-1.5-2.6-2.9-3.1c-0.6-0.2-1.2-0.2-1.5-0.2c-0.3,0-0.5-0.1-0.5-0.4
			c0-0.3,0.4-0.4,1-0.4c2,0,4.2,0.1,5.5,0.1c1,0,2.8-0.1,4.7-0.1c0.5,0,0.9,0.1,0.9,0.4c0,0.3-0.2,0.4-0.6,0.4c-0.6,0-1.2,0-1.5,0.3
			c-0.3,0.2-0.4,0.5-0.4,0.8c0,0.5,0.4,1.6,0.9,3.1l6.6,18.3h0.2c1.6-4.4,6.6-17.4,7.5-20c0.2-0.5,0.4-1.1,0.4-1.5
			c0-0.3-0.2-0.6-0.5-0.8c-0.5-0.2-1-0.2-1.5-0.2c-0.4,0-0.7,0-0.7-0.3c0-0.3,0.4-0.4,1.1-0.4c1.9,0,3.5,0.1,4,0.1
			c0.7,0,2.5-0.1,3.6-0.1c0.5,0,0.8,0.1,0.8,0.4c0,0.3-0.2,0.4-0.6,0.4c-0.4,0-1.2,0-1.9,0.5c-0.5,0.4-1.1,1-2.1,3.6
			c-1.5,3.8-2.5,6-4.6,10.9c-2.4,5.9-4.2,10.3-5.1,12.3c-1,2.4-1.2,3-1.8,3c-0.5,0-0.7-0.6-1.4-2.4L272.4,43.4z"/>
		<path style="fill:#575047;" d="M302.3,59.4c-0.2,0-0.3,0.1-0.3,0.3l-2.1,5.8c-0.4,1-0.6,2-0.6,2.5c0,0.7,0.3,1.2,1.5,1.2h0.6
			c0.5,0,0.6,0.1,0.6,0.3c0,0.3-0.2,0.4-0.6,0.4c-1.2,0-2.9-0.1-4.1-0.1c-0.4,0-2.5,0.1-4.5,0.1c-0.5,0-0.7-0.1-0.7-0.4
			c0-0.2,0.2-0.3,0.5-0.3c0.3,0,0.9,0,1.2-0.1c1.8-0.2,2.5-1.6,3.2-3.6l9.6-25.3c0.5-1.2,0.7-1.6,1.1-1.6c0.4,0,0.6,0.4,1,1.3
			c0.9,2.2,7,18.6,9.5,24.8c1.5,3.6,2.6,4.2,3.4,4.4c0.6,0.1,1.1,0.2,1.6,0.2c0.3,0,0.5,0,0.5,0.3c0,0.3-0.3,0.4-1.8,0.4
			c-1.4,0-4.2,0-7.2-0.1c-0.7,0-1.2,0-1.2-0.3c0-0.2,0.2-0.3,0.5-0.4c0.3-0.1,0.5-0.4,0.3-0.9l-3-8.5c-0.1-0.2-0.2-0.3-0.4-0.3
			H302.3z M310.1,57.4c0.2,0,0.2-0.1,0.2-0.2l-3.4-9.9c0-0.2-0.1-0.4-0.2-0.4c-0.1,0-0.2,0.2-0.2,0.4l-3.5,9.9c0,0.2,0,0.3,0.2,0.3
			H310.1z"/>
	</g>
	<g>
		<g>
			<path style="fill:#F29100;" d="M27.5,23.5v-9.4l-6.8,9.4h-2.1l-6.8-9.3v9.3H9.5V10.1h2.4l7.9,10.9l7.9-10.9h2.2v13.4H27.5z"/>
			<path style="fill:#F29100;" d="M50.6,23.5l-6.9-10.8l-7,10.8h-2.8l8.9-13.4h1.8l8.8,13.4H50.6z"/>
			<path style="fill:#F29100;" d="M57.6,23.5V10.1h12.2c0.9,0,1.7,0.1,2.4,0.2c0.6,0.2,1.1,0.4,1.5,0.7c0.4,0.3,0.6,0.7,0.8,1.2
				c0.2,0.5,0.2,1.1,0.2,1.7v5.6c0,0.6-0.1,1.2-0.2,1.7c-0.2,0.5-0.4,0.9-0.8,1.2c-0.4,0.3-0.9,0.6-1.5,0.7
				c-0.6,0.2-1.4,0.2-2.4,0.2H57.6z M72.2,14.1c0-0.4,0-0.7-0.1-0.9c-0.1-0.3-0.2-0.5-0.4-0.6c-0.2-0.2-0.4-0.3-0.7-0.3
				c-0.3-0.1-0.7-0.1-1.2-0.1h-9.7v9.4h9.7c0.5,0,0.9,0,1.2-0.1c0.3-0.1,0.6-0.2,0.7-0.3c0.2-0.1,0.3-0.3,0.4-0.6
				c0.1-0.2,0.1-0.5,0.1-0.9V14.1z"/>
			<path style="fill:#F29100;" d="M80,23.5V10.1h13.7v2H82.5v3.3h10.7v2H82.5v4.1h11.2v2H80z"/>
			<path style="fill:#F29100;" d="M111.4,23.5l-3.1-6h-7v6h-2.5V10.1H110c0.8,0,1.4,0.1,1.9,0.2c0.5,0.2,1,0.4,1.3,0.7
				c0.3,0.3,0.6,0.6,0.7,1c0.2,0.4,0.2,0.8,0.2,1.3v0.9c0,0.9-0.3,1.6-0.8,2.2c-0.5,0.6-1.4,0.9-2.5,1l3.2,6H111.4z M111.7,13.4
				c0-0.8-0.6-1.2-1.7-1.2h-8.8v3.5h8.8c1.1,0,1.7-0.4,1.7-1.2V13.4z"/>
			<path style="fill:#F29100;" d="M134.6,23.5l-6.9-10.8l-7,10.8h-2.8l8.9-13.4h1.8l8.8,13.4H134.6z"/>
			<path style="fill:#F29100;" d="M140.9,23.5v-2h11.6c1.1,0,1.7-0.4,1.7-1.2v-1.7c0-0.8-0.6-1.2-1.7-1.2h-7.9
				c-0.8,0-1.4-0.1-1.9-0.2c-0.5-0.2-1-0.4-1.3-0.7c-0.3-0.3-0.6-0.6-0.7-1c-0.2-0.4-0.2-0.8-0.2-1.3v-0.8c0-0.5,0.1-0.9,0.2-1.3
				c0.2-0.4,0.4-0.7,0.7-1c0.3-0.3,0.8-0.5,1.3-0.7c0.5-0.2,1.2-0.2,1.9-0.2H156v2h-11.3c-1.1,0-1.7,0.4-1.7,1.2v0.8
				c0,0.8,0.6,1.2,1.7,1.2h7.9c0.8,0,1.4,0.1,1.9,0.2c0.5,0.2,1,0.4,1.3,0.7c0.3,0.3,0.6,0.6,0.7,1c0.2,0.4,0.2,0.8,0.2,1.3v1.7
				c0,0.5-0.1,0.9-0.2,1.3c-0.2,0.4-0.4,0.7-0.7,1c-0.3,0.3-0.8,0.5-1.3,0.7c-0.5,0.2-1.2,0.2-1.9,0.2H140.9z"/>
		</g>
	</g>
	<line style="fill:none;stroke:#8E8C8C;stroke-width:1.0059;stroke-miterlimit:10;" x1="168.8" y1="22.6" x2="322.7" y2="22.6"/>
	<g>
		<g>
			<path style="fill:#F29100;" d="M154.7,99.8v-9.4l-6.8,9.4h-2.1l-6.8-9.3v9.3h-2.3V86.5h2.4l7.9,10.9l7.9-10.9h2.2v13.4H154.7z"/>
			<path style="fill:#F29100;" d="M177.9,99.8L171,89.1l-7,10.8h-2.8l8.9-13.4h1.8l8.8,13.4H177.9z"/>
			<path style="fill:#F29100;" d="M187.7,99.8V88.4h-7v-2h16.3v2h-6.8v11.4H187.7z"/>
			<path style="fill:#F29100;" d="M201.6,99.8V86.5h13.7v2h-11.2v3.3h10.7v2h-10.7v4.1h11.2v2H201.6z"/>
			<path style="fill:#F29100;" d="M233,99.8l-3.1-6h-7v6h-2.5V86.5h11.4c0.8,0,1.4,0.1,1.9,0.2c0.5,0.2,1,0.4,1.3,0.7
				c0.3,0.3,0.6,0.6,0.7,1c0.2,0.4,0.2,0.8,0.2,1.3v0.9c0,0.9-0.3,1.6-0.8,2.2c-0.5,0.6-1.4,0.9-2.5,1l3.2,6H233z M233.4,89.7
				c0-0.8-0.6-1.2-1.7-1.2h-8.8v3.5h8.8c1.1,0,1.7-0.4,1.7-1.2V89.7z"/>
			<path style="fill:#F29100;" d="M240.9,99.8V86.5h2.5v13.4H240.9z"/>
			<path style="fill:#F29100;" d="M264.3,99.8l-6.9-10.8l-7,10.8h-2.8l8.9-13.4h1.8l8.8,13.4H264.3z"/>
			<path style="fill:#F29100;" d="M271.2,99.8V86.5h2.5v11.4h10.8v2H271.2z"/>
			<path style="fill:#F29100;" d="M289.2,99.8V86.5H303v2h-11.2v3.3h10.7v2h-10.7v4.1H303v2H289.2z"/>
			<path style="fill:#F29100;" d="M308.1,99.8v-2h11.6c1.1,0,1.7-0.4,1.7-1.2v-1.7c0-0.8-0.6-1.2-1.7-1.2h-7.9
				c-0.8,0-1.4-0.1-1.9-0.2c-0.5-0.2-1-0.4-1.3-0.7c-0.3-0.3-0.6-0.6-0.7-1c-0.2-0.4-0.2-0.8-0.2-1.3v-0.8c0-0.5,0.1-0.9,0.2-1.3
				c0.2-0.4,0.4-0.7,0.7-1c0.3-0.3,0.8-0.5,1.3-0.7c0.5-0.2,1.2-0.2,1.9-0.2h11.3v2h-11.3c-1.1,0-1.7,0.4-1.7,1.2v0.8
				c0,0.8,0.6,1.2,1.7,1.2h7.9c0.8,0,1.4,0.1,1.9,0.2c0.5,0.2,1,0.4,1.3,0.7c0.3,0.3,0.6,0.6,0.7,1c0.2,0.4,0.2,0.8,0.2,1.3v1.7
				c0,0.5-0.1,0.9-0.2,1.3c-0.2,0.4-0.4,0.7-0.7,1c-0.3,0.3-0.8,0.5-1.3,0.7c-0.5,0.2-1.2,0.2-1.9,0.2H308.1z"/>
		</g>
	</g>
	<line style="fill:none;stroke:#8E8C8C;stroke-width:1.0375;stroke-miterlimit:10;" x1="8.9" y1="99.9" x2="125.8" y2="99.9"/>
</g>
</svg>
