<?xml version="1.0" encoding="utf-8"?>
<!-- Generator: Adobe Illustrator 22.1.0, SVG Export Plug-In . SVG Version: 6.00 Build 0)  -->
<svg version="1.1" xmlns="http://www.w3.org/2000/svg" xmlns:xlink="http://www.w3.org/1999/xlink" x="0px" y="0px"
	 viewBox="0 0 60 16.6" style="enable-background:new 0 0 60 16.6;" xml:space="preserve">
<g id="Layer_1">
</g>
<g id="background">
	<path style="fill:#565046;" d="M29.9,5.5c0,0,0,0.1,0,0.1c0,0,0,0.1,0,0.1l0,0c-0.2,0.6-0.9,2.1-1.3,2.9c-0.2,0.4-0.2,0.4-0.6,0.4
		h-1.2l0-3.7h3C29.8,5.4,29.9,5.5,29.9,5.5z M31.9,0.9h-5.1l0,3.6h2.9c0.7,0,0.7,0,1-0.7L32,1.1c0,0,0,0,0-0.1C32,1,32,1,32,1
		C32,0.9,31.9,0.9,31.9,0.9z M14.8,9.6l-1.4-3L10.5,13l4.9,0c0.2,0,0.3-0.1,0.4-0.2c0.1-0.1,0.1-0.2,0.1-0.3c0-0.1,0-0.2-0.1-0.4
		C15.9,12.1,15.5,11.1,14.8,9.6z M12.9,5.6c0-0.1,0-0.1,0-0.2c0,0,0-0.1,0-0.1l0-0.1L11,1.1c0-0.1-0.1-0.1-0.2-0.1H7.4
		c-0.2,0-0.2,0-0.3,0.2L0.4,15.7h7.8c0,0,0.2,0,0.2-0.1l0.3-0.7C9.7,12.7,12.7,6.1,12.9,5.6L12.9,5.6z M41.8,0.9l-6.5,0
		c-0.1,0-0.2,0-0.2,0.1C35,1.1,35,1.2,35,1.4v11.1c0,0.3,0.2,0.5,0.3,0.5h6.4c0,0,0.3,0,0.3-0.4l0-11.1c0-0.2,0-0.3-0.1-0.4
		C41.9,0.9,41.8,0.9,41.8,0.9z M25.6,0.9c0,0-2.4,0-4.2,0c-1.1,0-2,0-2,0c-0.4,0-0.5,0.1-0.5,0.5v11.2c0,0.2,0.1,0.4,0.3,0.4h6.4
		c0,0,0.3,0,0.3-0.4l0-11.6L25.6,0.9C25.7,0.9,25.7,0.9,25.6,0.9z M59.1,0.9l-6.2,0l0,8.2l2.5,0c0.3,0,0.9-0.1,1.2-0.7l3-6.7
		c0.1-0.1,0.1-0.3,0.1-0.4c0-0.1,0-0.2-0.1-0.3C59.4,1,59.3,0.9,59.1,0.9z M51.6,0.9L51.6,0.9c-0.1,0-3.3,0-5,0l-1,0
		C45,0.9,45,1.3,45,1.5v11c0,0.2,0,0.3,0.1,0.4c0.1,0.1,0.1,0.1,0.2,0.1h6.2c0.1,0,0.4-0.1,0.4-0.4l0-11.6L51.6,0.9
		C51.6,0.9,51.6,0.9,51.6,0.9z"/>
</g>
<g id="Capa_1">
</g>
</svg>
