<?xml version="1.0" encoding="utf-8"?>
<!-- Generator: Adobe Illustrator 22.1.0, SVG Export Plug-In . SVG Version: 6.00 Build 0)  -->
<svg version="1.1" id="Capa_1" xmlns="http://www.w3.org/2000/svg" xmlns:xlink="http://www.w3.org/1999/xlink" x="0px" y="0px"
	 viewBox="0 0 486.3 119" style="enable-background:new 0 0 486.3 119;" xml:space="preserve">
<path style="fill:#F4F4F4;" d="M177.7,58.6v16.5h-8.5V35.5h8.5v15.4l20.5-15.4h12.2l-23.9,18.2L213,75.1h-13.1l-21-17.1L177.7,58.6z
	 M219.5,75.1l20.8-39.8h8l21,39.8h-9.1l-4.8-8.5H232l-4.3,8.5H219.5z M236,59.4h15.9l-8.5-16.2L236,59.4z M313.3,75.1V35.5h6.3
	l29,25.6V35.3h9.7v39.8h-7.4l-29.3-26.2v26.2H313.3z M378.1,35.3h24.2c11.4,0,20.5,6.3,20.5,19.9c0,13.4-8.8,19.9-20.5,19.9h-24.2
	V35.3z M386.9,67.7h12.2c10,0,14.5-2.3,14.5-12.5c0-10.5-4.3-12.5-13.9-12.5h-12.8V67.7z M440.1,75.1V35.3h8.2v33h27.9v6.8H440.1z
	 M283.7,35.5h8.2v39.5h-8.2V35.5z"/>
<path style="fill:#A5B0CA;" d="M109.9,56.1l20,7.8L76,111.3l-65.8-25l15.5-13.9L71.6,90L109.9,56.1z M104.6,31.4l20.3,7.8L71,86.9
	L5,61.7l15.8-13.6l45.5,17.2L104.6,31.4z M99.6,7l20,7.5L65.8,62.2L0,37.2l15.3-13.9L61,40.9L99.6,7z"/>
</svg>
