<?xml version="1.0" encoding="utf-8"?>
<!-- Generator: Adobe Illustrator 22.1.0, SVG Export Plug-In . SVG Version: 6.00 Build 0)  -->
<svg version="1.1" id="Capa_1" xmlns="http://www.w3.org/2000/svg" xmlns:xlink="http://www.w3.org/1999/xlink" x="0px" y="0px"
	 viewBox="0 0 64 105" style="enable-background:new 0 0 64 105;" xml:space="preserve">
<style type="text/css">
	.st0{fill:#FFFFFF;stroke:#F29100;stroke-width:2;stroke-miterlimit:10;}
	.st1{fill:#575047;}
</style>
<path class="st0" d="M62.2,32.6c0,25-29.9,43.6-29.9,43.6S2.4,58.6,2.4,32.6c0-16.5,13.4-29.9,29.9-29.9S62.2,16.1,62.2,32.6z"/>
<g>
	<path class="st1" d="M11.1,25.8c-0.7-1.7-1.2-2-2.2-2.4c-0.5-0.2-0.9-0.2-1.2-0.2S7.3,23.2,7.3,23c0-0.2,0.3-0.3,0.8-0.3
		c1.6,0,3.3,0.1,4.3,0.1c0.8,0,2.2-0.1,3.6-0.1c0.4,0,0.7,0.1,0.7,0.3c0,0.2-0.2,0.3-0.5,0.3c-0.5,0-0.9,0-1.2,0.2
		c-0.2,0.2-0.3,0.4-0.3,0.6c0,0.4,0.3,1.2,0.7,2.4l5.1,14.2h0.2c1.2-3.4,5.1-13.5,5.8-15.5c0.2-0.4,0.2-0.9,0.2-1.2
		c0-0.2-0.2-0.5-0.4-0.6c-0.4-0.2-0.8-0.2-1.2-0.2c-0.2,0-0.5,0-0.5-0.2s0.2-0.3,0.9-0.3c1.5,0,2.7,0.1,3.1,0.1
		c0.5,0,1.9-0.1,2.8-0.1c0.4,0,0.6,0.1,0.6,0.3c0,0.2-0.2,0.3-0.5,0.3c-0.3,0-0.9,0-1.5,0.4c-0.4,0.3-0.9,0.8-1.6,2.8
		c-1.2,2.9-1.9,4.7-3.6,8.4c-1.9,4.6-3.3,8-4,9.5c-0.8,1.9-0.9,2.3-1.4,2.3c-0.4,0-0.5-0.5-1.2-1.9L11.1,25.8z"/>
	<path class="st1" d="M31.7,34.6c0-5.3,3.3-12.2,12.2-12.2c7.4,0,11.9,4.5,11.9,11.7c0,7.1-4.7,12.8-12.2,12.8
		C35.1,46.9,31.7,40.1,31.7,34.6z M51.8,35.2c0-7-3.8-11.3-8.7-11.3c-3.4,0-7.3,2-7.3,9.8c0,6.5,3.4,11.6,9.1,11.6
		C47,45.3,51.8,44.2,51.8,35.2z"/>
</g>
</svg>
