<?xml version="1.0" encoding="utf-8"?>
<!-- Generator: Adobe Illustrator 22.1.0, SVG Export Plug-In . SVG Version: 6.00 Build 0)  -->
<svg version="1.1" id="Capa_1" xmlns="http://www.w3.org/2000/svg" xmlns:xlink="http://www.w3.org/1999/xlink" x="0px" y="0px"
	 viewBox="0 0 40 40" style="enable-background:new 0 0 40 40;" xml:space="preserve">
<path style="fill:#F29100;" d="M32.7,14.1l6.8-3L19.6,3L0.5,11.2l6.6,3L0.7,17l0,6.4l5.4,2.5l-5.6,2.4L19.6,37l19.9-8.7L34,26
	l5.5-2.4l-0.1-6.8L32.7,14.1z M38.1,22.8l-5.7,2.4V20l5.6-2.5L38.1,22.8z M19.6,35.6L3.7,28.3l4-1.7l12.1,5.5l12.6-5.4l3.9,1.6
	L19.6,35.6z M36.2,11.2l-16.6,7.2L3.7,11.2l15.9-6.8L36.2,11.2z M13.4,17l6.2,2.8l6.3-2.8l5.1-2.2l5.1,2.1l-0.4,0.2l-16.2,7.1
	L3.7,17l0,0l4.9-2.1L13.4,17z M24.9,28.5l-4.6,2l0-5.1l4.7-2V28.5z M14.2,23.2l4.7,2.1l0,5l-4.7-2.1V23.2z M12.9,22.6v5l-4.6-2.1v-5
	L12.9,22.6z M30.9,25.9l-4.6,2v-5.2l4.6-2V25.9z M6.8,19.8v5l-4.8-2.2l0-4.9L6.8,19.8z"/>
</svg>
