<?xml version="1.0" encoding="utf-8"?>
<!-- Generator: Adobe Illustrator 22.1.0, SVG Export Plug-In . SVG Version: 6.00 Build 0)  -->
<svg version="1.1" id="Capa_1" xmlns="http://www.w3.org/2000/svg" xmlns:xlink="http://www.w3.org/1999/xlink" x="0px" y="0px"
	 viewBox="0 0 40 40" style="enable-background:new 0 0 40 40;" xml:space="preserve">
<path style="fill:#F29100;" d="M32.8,31.6L32.8,31.6l0-1.2h0v-3.9h0V25h0l0,0v-4.3h0v-1.1h0.1l0.9,1l0.9,1.1l1.2,1.4l1.3-1.1
	l-2.5-2.9L34.6,19l-7-8.1L26.9,10l-5.8-6.7l-1-1.2L20,2l-0.1,0.1l0,0l-1,1.2L13.1,10l-0.8,0.9l-7,8.2l-0.1,0.1L2.8,22l1.3,1.1
	l1.2-1.4l1-1.1l0.9-1h0.1v1.1V25l0,0h0v1.5v3.6v0.3v1.2v3.8H4V38h32v-2.5h-3.2V31.6z M11.1,35.5H9.4v-3.8h1.7V35.5z M11.1,30.1H9.4
	v-3.6h1.7V30.1z M11.1,25H9.4v-4.3h1.7V25z M9.4,19v-2l1.7-2v4H9.4z M14.7,11L14.7,11l0,1.2h0v5.5h0V19h0v4.4h0v2.5h0v9.6h-2.3v-3.8
	h0v-1.2h0v-3.9h0V25h0l0,0v-4.3h0v-1.1h0v-6.1l0,0l2.3-2.7l0,0V11z M17.4,35.5h-1.3v-9.6h1.3V35.5z M17.4,23.4h-1.3V19h1.3V23.4z
	 M17.4,17.7h-1.3v-5.5h1.3V17.7z M17.4,11h-1.3V9.1l1.3-1.6V11z M20.7,11L20.7,11l0,1.2h0v5.5h0V19h0v4.4h-1.5V19v-1.2v-5.5v-0.4V11
	V5.4L20,4.6l0.7,0.9l0,0V11z M23.8,35.5h-1.3v-9.6h1.3V35.5z M23.8,23.4h-1.3V19h1.3V23.4z M23.8,17.7h-1.3v-5.5h1.3V17.7z M23.8,11
	h-1.3V7.5L23.8,9V11z M27.6,25v1.5v0v3.6v0.3v1.2v0v3.8h-2.3v-9.6h0v-2.5h0V19h0v-1.2h0v-5.5h0V11h0v-0.2l0,0l2.3,2.7V19v0.6v1.1v0
	V25L27.6,25L27.6,25z M30.6,35.5h-1.8v-3.8h1.8V35.5z M30.6,30.1h-1.8v-3.6h1.8V30.1z M30.6,25h-1.8v-4.3h1.8V25z M30.6,19h-1.8
	v-4.1l1.8,2V19z"/>
</svg>
