<?xml version="1.0" encoding="utf-8"?>
<!-- Generator: Adobe Illustrator 22.1.0, SVG Export Plug-In . SVG Version: 6.00 Build 0)  -->
<svg version="1.1" id="Capa_1" xmlns="http://www.w3.org/2000/svg" xmlns:xlink="http://www.w3.org/1999/xlink" x="0px" y="0px"
	 viewBox="0 0 40 40" style="enable-background:new 0 0 40 40;" xml:space="preserve">
<g>
	<path style="fill:#F29100;" d="M25.6,0.4h-1.4v4.4l-0.3,0c-1.5,0.3-2.7,1.2-3.3,2.6c-0.3,0.1-0.5,0.2-0.8,0.3c0-0.2,0-0.5,0.1-0.9
		l0.5-1.7L18.8,6c-1.4,0.8-2.1,2.1-2.2,3.6c-0.2,0.2-0.4,0.4-0.7,0.6c-0.1-0.2-0.2-0.4-0.2-0.9l-0.2-1.8l-1.2,1.4
		c-1,1.2-1.3,2.7-0.8,4.1c-0.2,0.2-0.3,0.5-0.4,0.7c-0.2-0.2-0.4-0.4-0.5-0.7l-0.8-1.6l-0.6,1.7c-0.5,1.5-0.3,2.9,0.6,4.1
		c-0.1,0.3-0.1,0.6-0.1,0.9c-0.2-0.1-0.5-0.2-0.7-0.5l-1.3-1.3v1.8c0,1.6,0.7,2.9,2,3.7c0,0.3,0.1,0.6,0.1,0.8
		c-0.2,0-0.5-0.1-0.9-0.2l-1.6-0.8l0.6,1.7c0.5,1.5,1.6,2.4,3.2,2.8c0.1,0.3,0.3,0.5,0.4,0.7C13.4,27,13.1,27,12.7,27l-1.8-0.2
		l1.2,1.4c1,1.2,2.4,1.7,3.9,1.5c0.2,0.2,0.4,0.4,0.7,0.6c-0.2,0.1-0.4,0.3-0.8,0.4l-1.7,0.5l1.6,0.9c1.4,0.8,2.8,0.8,4.2,0.1
		c0.3,0.1,0.5,0.2,0.8,0.3c-0.1,0.2-0.3,0.4-0.6,0.6l-1.5,1l1.8,0.3c0.3,0.1,0.6,0.1,0.8,0.1c1.2,0,2.2-0.5,3-1.3v6.6h1.4V0.4z
		 M24.1,31.6c0,0-0.1,0-0.1,0l-0.4,0l-0.2,0.3c-0.4,0.5-0.8,0.8-1.3,1c0.1-0.3,0.2-0.7,0.2-1l0-0.6l-0.5-0.1
		c-0.6-0.1-1.1-0.3-1.6-0.6l-0.4-0.2l-0.3,0.2c-0.5,0.3-1,0.5-1.5,0.5c0.2-0.3,0.4-0.6,0.5-0.8l0.2-0.5l-0.5-0.3
		c-0.5-0.3-0.9-0.7-1.3-1.1l-0.3-0.3L16,28.2c-0.6,0.1-1.1,0.1-1.6-0.1c0.3-0.2,0.6-0.4,0.7-0.6l0.3-0.4l-0.3-0.5
		c-0.3-0.5-0.6-1-0.9-1.5l-0.2-0.4l-0.4-0.1c-0.6-0.1-1.1-0.3-1.5-0.6c0.4-0.1,0.7-0.2,0.9-0.3l0.5-0.3l-0.1-0.5
		c-0.1-0.6-0.3-1.1-0.3-1.7l0-0.4l-0.4-0.2c-0.5-0.3-0.9-0.6-1.2-1.1c0.4,0.1,0.7,0,1,0l0.5-0.1l0-0.6c0.1-0.6,0.1-1.1,0.3-1.7
		l0.1-0.4l-0.3-0.3c-0.4-0.4-0.7-0.9-0.7-1.4c0.3,0.2,0.6,0.3,0.9,0.3l0.5,0.1l0.2-0.5c0.2-0.5,0.5-1,0.8-1.5l0.2-0.3l-0.2-0.4
		c-0.2-0.6-0.3-1.1-0.2-1.6c0.2,0.3,0.5,0.5,0.7,0.6l0.5,0.3l0.4-0.4c0.4-0.4,0.8-0.8,1.3-1.1l0.3-0.2l0-0.4c0-0.6,0.1-1.1,0.3-1.6
		c0.1,0.4,0.3,0.6,0.5,0.8l0.4,0.4l0.5-0.2c0.5-0.2,1.1-0.4,1.6-0.6l0.4-0.1l0.1-0.4c0.2-0.6,0.5-1,0.9-1.4c0,0.4,0.1,0.7,0.2,1
		l0.2,0.5l0.6,0c0.1,0,0.3,0,0.4,0v2.6c-4.7,0.3-8.5,4.3-8.5,9.1s3.8,8.7,8.5,9.1V31.6z M17.2,19.9c0-4,3.1-7.3,7-7.5v2.5
		c-2.6,0.3-4.6,2.4-4.6,5.1s2,4.8,4.6,5.1v2.5C20.3,27.2,17.2,23.9,17.2,19.9z M24.1,16.4v7.1c-1.7-0.3-3-1.8-3-3.6
		C21.1,18.2,22.4,16.7,24.1,16.4z"/>
	
		<rect x="9" y="19.2" transform="matrix(6.408438e-02 -0.9979 0.9979 6.408438e-02 6.9449 47.2663)" style="fill:#F29100;" width="39.4" height="1.4"/>
</g>
</svg>
