<?xml version="1.0" encoding="utf-8"?>
<!-- Generator: Adobe Illustrator 22.1.0, SVG Export Plug-In . SVG Version: 6.00 Build 0)  -->
<svg version="1.1" id="Capa_1" xmlns="http://www.w3.org/2000/svg" xmlns:xlink="http://www.w3.org/1999/xlink" x="0px" y="0px"
	 viewBox="0 0 40 40" style="enable-background:new 0 0 40 40;" xml:space="preserve">
<g>
	<path style="fill-rule:evenodd;clip-rule:evenodd;fill:#F29100;" d="M22,1.7c0,5.7,0,11.2,0,16.9c-2,0-4,0-6.1,0
		c0,6.6,0,13.1,0,19.7c-3.6,0-6.9,0.1-10.3,0c-1.6-0.1-2.1-1.3-2.1-2.9c0-8.1,0-16.1,0-24.2c0-2.3,0-4.7,0-7c0-1.4,0.7-2.5,2.1-2.5
		C11.1,1.7,16.5,1.7,22,1.7z M5.8,4c0,10.8,0,21.4,0,32c2.7,0,5.2,0,7.7,0c0-10.7,0-21.3,0-32C11,4,8.5,4,5.8,4z M19.7,16.3
		c0-4.2,0-8.3,0-12.4c-1.3,0-2.4,0-3.6,0c0,4.2,0,8.3,0,12.4C17.3,16.3,18.5,16.3,19.7,16.3z"/>
	<path style="fill-rule:evenodd;clip-rule:evenodd;fill:#F29100;" d="M24,1.7c3.7,0,7-0.1,10.3,0c1.6,0,2.2,1,2.2,2.9
		c0,8.9,0,17.7,0,26.6c0,1.5,0,3,0,4.6c0,1.3-0.7,2.4-2,2.4c-5.5,0.1-10.9,0-16.5,0c0-5.7,0-11.2,0-16.9c2,0,3.9,0,6,0
		C24,14.8,24,8.4,24,1.7z M34.1,36c0-10.8,0-21.4,0-32c-2.7,0-5.2,0-7.7,0c0,10.7,0,21.3,0,32C29,36,31.5,36,34.1,36z M20.3,23.6
		c0,4.2,0,8.3,0,12.3c1.3,0,2.5,0,3.7,0c0-4.2,0-8.2,0-12.3C22.7,23.6,21.5,23.6,20.3,23.6z"/>
	<circle style="fill-rule:evenodd;clip-rule:evenodd;fill:#F29100;" cx="30" cy="8" r="2"/>
	<circle style="fill-rule:evenodd;clip-rule:evenodd;fill:#F29100;" cx="10" cy="8" r="2"/>
	<circle style="fill-rule:evenodd;clip-rule:evenodd;fill:#F29100;" cx="30" cy="20" r="2"/>
	<circle style="fill-rule:evenodd;clip-rule:evenodd;fill:#F29100;" cx="10" cy="20" r="2"/>
	<circle style="fill-rule:evenodd;clip-rule:evenodd;fill:#F29100;" cx="30" cy="32" r="2"/>
	<circle style="fill-rule:evenodd;clip-rule:evenodd;fill:#F29100;" cx="10" cy="32" r="2"/>
</g>
</svg>
