<?xml version="1.0" encoding="utf-8"?>
<!-- Generator: Adobe Illustrator 22.1.0, SVG Export Plug-In . SVG Version: 6.00 Build 0)  -->
<svg version="1.1" id="Capa_1" xmlns="http://www.w3.org/2000/svg" xmlns:xlink="http://www.w3.org/1999/xlink" x="0px" y="0px"
	 viewBox="0 0 40 40" style="enable-background:new 0 0 40 40;" xml:space="preserve">
<g>
	<path style="fill:#575047;" d="M36.5,21c0-0.3,0-0.7,0-1c0-0.5,0-1-0.1-1.4c0.7-0.3,1.6-0.3,2.7,0.5c-0.4-2.4-2-3.4-3.3-3.8
		c-0.2-0.8-0.5-1.6-0.9-2.3c0.5-0.5,1.4-0.8,2.7-0.5c-1.2-2.1-3.1-2.5-4.4-2.4c-0.5-0.7-1-1.3-1.6-1.9c0.3-0.6,1-1.2,2.4-1.4
		c-1.9-1.6-3.7-1.3-5-0.7C28.4,5.8,27.7,5.4,27,5c0.1-0.7,0.6-1.5,1.8-2.1c-2.3-0.8-3.9,0.1-4.9,1c-0.8-0.2-1.6-0.3-2.4-0.4
		c-0.1-0.7,0-1.6,1-2.6c-2.4,0-3.7,1.4-4.3,2.6c-0.8,0.1-1.6,0.2-2.4,0.5c-0.4-0.6-0.5-1.5,0-2.7c-2.3,0.8-3,2.6-3.1,3.9
		c-0.7,0.4-1.4,0.8-2.1,1.3C10,6,9.5,5.2,9.6,3.9C7.8,5.4,7.7,7.3,8,8.6C7.5,9.2,7,9.9,6.5,10.5c-0.7-0.2-1.4-0.8-1.7-2.1
		c-1.2,2.1-0.6,3.9,0.1,5c-0.3,0.7-0.6,1.5-0.8,2.3c-0.7,0-1.6-0.3-2.4-1.4c-0.4,2.4,0.8,3.9,1.8,4.7c0,0.3,0,0.7,0,1
		c0,0.5,0,1,0.1,1.4c-0.7,0.3-1.6,0.3-2.7-0.5c0.4,2.4,2,3.4,3.3,3.8C4.4,25.5,4.7,26.2,5,27c-0.5,0.5-1.4,0.8-2.7,0.5
		c1.2,2.1,3.1,2.5,4.4,2.4c0.5,0.7,1,1.3,1.6,1.9c-0.3,0.6-1,1.2-2.4,1.4c1.9,1.6,3.7,1.3,5,0.7c0.7,0.4,1.4,0.9,2.1,1.2
		c-0.1,0.7-0.6,1.5-1.8,2.1c2.3,0.8,3.9-0.1,4.9-1c0.8,0.2,1.6,0.3,2.4,0.4c0.1,0.7,0,1.6-1,2.6c2.4,0,3.7-1.4,4.3-2.6
		c0.8-0.1,1.6-0.2,2.4-0.5c0.4,0.6,0.5,1.5,0,2.7c2.3-0.8,3-2.6,3.1-3.9c0.7-0.4,1.4-0.8,2.1-1.2c0.6,0.4,1,1.2,0.9,2.6
		c1.9-1.6,1.9-3.4,1.6-4.8c0.6-0.6,1.1-1.2,1.5-1.9c0.7,0.2,1.4,0.8,1.7,2.1c1.2-2.1,0.6-3.9-0.1-5c0.3-0.7,0.6-1.5,0.8-2.3
		c0.7,0,1.6,0.3,2.4,1.4C38.7,23.3,37.5,21.8,36.5,21z M20,31.1c-6.1,0-11.1-5-11.1-11.1c0-6.1,5-11.1,11.1-11.1s11.1,5,11.1,11.1
		C31.1,26.1,26.1,31.1,20,31.1z"/>
	<path style="fill:#F29218;" d="M25.8,20c0,3.2-2.6,5.8-5.8,5.8c-3.2,0-5.8-2.6-5.8-5.8c0-3.2,2.6-5.8,5.8-5.8
		C23.2,14.2,25.8,16.8,25.8,20z"/>
</g>
</svg>
